<svg xmlns="http://www.w3.org/2000/svg" viewBox="0 0 1920 1080"><defs><style>.green{fill:#35a853}.green,.yellow,.red,.blue{stroke-width:0}.yellow{fill:#ffb901}.red{fill:#e94335}.line{fill:none;stroke:#fff;stroke-linecap:round;stroke-linejoin:round;stroke-width:2px}.blue{fill:#4385f5}</style></defs><path style="fill:#121212;stroke-width:0" d="M-28.8-26.4h1977.6v1165.7H-28.8z"/><path class="line" d="m967.74 605.5-61.87 221.86M485.6 102l-104.4 87.6M608.8 127.6 673.2 296M1668.4 111.6l-216.8-26.4M1315.73 247.2l89.07 371.73M1295.47 856.8l-173.34 152M329.07 393.87l156.26 182.4M118.4 711.73 0 697.33M248.53 850.93l118.94-63.46M811.73 438.67l44.8 12.8"/><circle class="red" cx="1790.1" cy="112.9" r="75.3" style="stroke-width:0"/><circle class="yellow" cx="1065.8" cy="237.2" r="75.3"/><circle class="blue" cx="935.2" cy="112.9" r="75.3"/><circle class="red" cx="567.19" cy="18.8" r="75.3"/><circle class="green" cx="717.46" cy="411.73" r="75.3"/><circle class="blue" cx="36.8" cy="513.2" r="75.3"/><circle class="red" cx="149.61" cy="903.72" r="75.3"/><circle class="yellow" cx="874.56" cy="939.65" r="75.3"/><circle class="blue" cx="1141.74" cy="683.6" r="75.3"/><circle class="green" cx="1021.6" cy="1080" r="75.3"/><circle class="green" cx="1813.6" cy="1106.8" r="75.3"/><circle class="yellow" cx="1691.2" cy="322.8" r="75.3"/><circle class="blue" cx="1738.4" cy="773.2" r="75.3"/><circle class="yellow" cx="471.58" cy="731.91" r="75.3"/><path class="red" transform="rotate(15.95 1005.248 492.506)" d="M885.54 415.53h239.98v154.33H885.54z"/><path class="yellow" transform="rotate(-40.59 250.028 302.272)" d="M130.07 225.11h239.98v154.33H130.07z"/><path class="blue" transform="rotate(35.55 613.865 738.065)" d="M493.88 660.9h239.98v154.33H493.88z"/><path class="green" transform="rotate(-13.47 1431.933 730.37)" d="M1311.48 653.06h239.98v154.33h-239.98z"/><path class="red" transform="rotate(-47.26 1710.823 911.692)" d="M1590.94 834.53h239.98v154.33h-239.98z"/><path class="red" transform="rotate(-58.75 1419.118 1100.789)" d="M1299.22 1023.64h239.98v154.33h-239.98z"/><path class="yellow" transform="rotate(-48.74 1856.428 513.614)" d="M1736.54 436.43h239.98v154.33h-239.98z"/><path class="blue" transform="rotate(-104.83 1619.757 340.25)" d="M1499.74 263.1h239.98v154.33h-239.98z"/><path class="green" transform="rotate(-139.51 1261.911 62.08)" d="M1141.91-15.07h239.98v154.33h-239.98z"/><path class="green" transform="rotate(164.64 -44.795 185.098)" d="M-164.79 107.93H75.19v154.33h-239.98z"/><path class="green" transform="rotate(-62 352.59 1031.634)" d="M232.56 954.43h239.98v154.33H232.56z"/><path class="red" d="M533.63 775.17a74.907 74.907 0 0 0 13.73-43.32c0-25.49-12.68-48-32.05-61.62l-43.45 60.8 61.77 44.14Z"/><path class="yellow" d="m1735.7 771.2-50.8 54.97c13.65 13.78 32.58 22.33 53.51 22.33s41.3-9.22 55.04-23.94l-57.74-53.36Z"/><path class="green" d="M1675.44 249.17c-34.02 7.25-59.54 37.46-59.54 73.63 0 41.59 33.71 75.3 75.3 75.3 7.93 0 15.57-1.23 22.75-3.51l-38.51-145.43Z"/></svg>
