<?xml version="1.0" encoding="UTF-8"?>
<svg id="Layer_2" data-name="Layer 2" xmlns="http://www.w3.org/2000/svg" viewBox="0 0 121.13 58.61">
	<defs>
		<style>
			.cls-1 {
			fill: #fbbc04;
			}

			.cls-2 {
			fill: #4285f4;
			}

			.cls-3 {
			fill: #34a853;
			}

			.cls-4 {
			fill: #ea4335;
			}
		</style>
	</defs>
	<g id="Layer_1-2" data-name="Layer 1">
		<g>
			<path class="cls-4"
				d="M28.84,29.42l19.67-11.36c4.63-2.67,6.21-8.59,3.54-13.22C49.38,.21,43.46-1.38,38.83,1.3L4.84,20.92l24,8.5Z" />
			<path class="cls-2"
				d="M43.66,58.61c3.34,0,6.6-1.74,8.39-4.84,2.67-4.63,1.09-10.55-3.54-13.22L14.52,20.93c-4.63-2.67-10.55-1.09-13.22,3.54s-1.09,10.55,3.54,13.22l33.99,19.62c1.53,.88,3.19,1.3,4.83,1.3Z" />
			<path class="cls-1"
				d="M77.47,58.61c1.64,0,3.31-.42,4.83-1.3l33.99-19.62-23.69-8.67-19.97,11.53c-4.63,2.67-6.21,8.59-3.54,13.22,1.78,3.1,5.04,4.84,8.38,4.84Z" />
			<path class="cls-3"
				d="M111.44,38.99c3.34,0,6.6-1.74,8.39-4.84,2.67-4.63,1.09-10.55-3.54-13.22L82.3,1.31c-4.63-2.67-10.55-1.09-13.22,3.54-2.67,4.63-1.09,10.55,3.54,13.22l33.99,19.62c1.52,.88,3.19,1.3,4.83,1.3Z" />
		</g>
	</g>
</svg>
