<svg width="1791" height="263" xmlns="http://www.w3.org/2000/svg" xmlns:xlink="http://www.w3.org/1999/xlink" xml:space="preserve" overflow="hidden"><defs><clipPath id="clip0"><rect x="1086" y="812" width="1791" height="263"/></clipPath></defs><g clip-path="url(#clip0)" transform="translate(-1086 -812)"><path d="M1109.5 900.81C1102.24 896.656 1096.51 890.945 1092.31 883.655 1088.1 876.365 1086 868.327 1086 859.521 1086 850.714 1088.1 842.656 1092.31 835.386 1096.51 828.117 1102.24 822.385 1109.5 818.231 1116.77 814.077 1124.68 812 1133.26 812 1139.96 812 1146.27 813.184 1152.16 815.551 1158.06 817.919 1162.93 821.263 1166.76 825.583L1158.99 833.33C1156.1 829.779 1152.39 827.037 1147.85 825.126 1143.32 823.216 1138.44 822.26 1133.28 822.26 1126.91 822.26 1120.96 823.797 1115.38 826.891 1109.82 829.986 1105.36 834.348 1102.01 839.977 1098.66 845.605 1096.97 852.106 1096.97 859.479 1096.97 866.852 1098.66 873.353 1102.01 878.982 1105.36 884.61 1109.82 888.972 1115.38 892.066 1120.93 895.161 1126.91 896.698 1133.28 896.698 1139.4 896.698 1144.5 895.743 1148.62 893.832 1152.75 891.921 1156.33 889.408 1159.39 886.272 1161.59 883.904 1163.39 881.017 1164.74 877.632 1166.09 874.246 1166.9 870.549 1167.15 866.582L1133.53 866.582 1133.53 856.55 1177.35 856.55C1177.77 858.918 1178 861.12 1178 863.155 1178 868.742 1177.1 874.184 1175.34 879.48 1173.55 884.776 1170.71 889.408 1166.8 893.396 1158.22 902.472 1147.06 907 1133.3 907 1124.68 907.041 1116.77 904.964 1109.5 900.81Z" fill="#656C73" fill-rule="evenodd"/><path d="M1201.48 902.624C1196.61 899.699 1192.82 895.695 1190.09 890.572 1187.36 885.448 1186 879.765 1186 873.5 1186 867.236 1187.36 861.552 1190.09 856.429 1192.8 851.305 1196.61 847.281 1201.48 844.377 1206.35 841.452 1211.83 840 1217.94 840 1224.06 840 1229.57 841.452 1234.46 844.377 1239.37 847.302 1243.18 851.305 1245.91 856.429 1248.62 861.552 1250 867.236 1250 873.5 1250 879.765 1248.64 885.448 1245.91 890.572 1243.18 895.695 1239.37 899.699 1234.46 902.624 1229.55 905.548 1224.04 907 1217.94 907 1211.81 907 1206.33 905.528 1201.48 902.624ZM1228.5 894.306C1231.77 892.356 1234.4 889.597 1236.35 885.988 1238.33 882.399 1239.31 878.229 1239.31 873.479 1239.31 868.729 1238.33 864.581 1236.35 860.971 1234.38 857.383 1231.77 854.603 1228.5 852.654 1225.23 850.704 1221.72 849.729 1217.94 849.729 1214.24 849.729 1210.77 850.704 1207.5 852.654 1204.23 854.603 1201.6 857.362 1199.65 860.971 1197.67 864.56 1196.69 868.729 1196.69 873.479 1196.69 878.229 1197.67 882.378 1199.65 885.988 1201.62 889.576 1204.23 892.356 1207.5 894.306 1210.77 896.255 1214.24 897.23 1217.94 897.23 1221.72 897.23 1225.23 896.255 1228.5 894.306Z" fill="#656C73" fill-rule="evenodd"/><path d="M1272.48 902.624C1267.61 899.699 1263.82 895.695 1261.09 890.572 1258.36 885.448 1257 879.765 1257 873.5 1257 867.236 1258.36 861.552 1261.09 856.429 1263.8 851.305 1267.61 847.281 1272.48 844.377 1277.35 841.452 1282.83 840 1288.94 840 1295.06 840 1300.57 841.452 1305.46 844.377 1310.37 847.302 1314.18 851.305 1316.91 856.429 1319.62 861.552 1321 867.236 1321 873.5 1321 879.765 1319.64 885.448 1316.91 890.572 1314.18 895.695 1310.37 899.699 1305.46 902.624 1300.55 905.548 1295.04 907 1288.94 907 1282.83 907 1277.35 905.528 1272.48 902.624ZM1299.52 894.306C1302.79 892.356 1305.42 889.597 1307.37 885.988 1309.35 882.399 1310.33 878.229 1310.33 873.479 1310.33 868.729 1309.35 864.581 1307.37 860.971 1305.4 857.383 1302.79 854.603 1299.52 852.654 1296.26 850.704 1292.74 849.729 1288.96 849.729 1285.26 849.729 1281.79 850.704 1278.52 852.654 1275.25 854.603 1272.62 857.362 1270.67 860.971 1268.69 864.56 1267.71 868.729 1267.71 873.479 1267.71 878.229 1268.69 882.378 1270.67 885.988 1272.64 889.576 1275.25 892.356 1278.52 894.306 1281.79 896.255 1285.26 897.23 1288.96 897.23 1292.72 897.23 1296.26 896.255 1299.52 894.306Z" fill="#656C73" fill-rule="evenodd"/><path d="M1341.51 928.587C1336.72 924.972 1333.46 920.758 1331.79 915.944L1341.76 911.771C1343.01 915.469 1345.26 918.485 1348.5 920.82 1351.74 923.133 1355.6 924.29 1360.06 924.29 1366.71 924.29 1371.83 922.369 1375.4 918.506 1378.97 914.642 1380.76 909.25 1380.76 902.309L1380.76 895.615 1380.27 895.615C1378.25 898.817 1375.34 901.482 1371.56 903.569 1367.76 905.676 1363.47 906.73 1358.68 906.73 1353.37 906.73 1348.44 905.284 1343.9 902.412 1339.36 899.54 1335.73 895.553 1333.05 890.492 1330.34 885.409 1329 879.707 1329 873.365 1329 867.022 1330.34 861.321 1333.05 856.238 1335.75 851.156 1339.36 847.19 1343.9 844.318 1348.44 841.446 1353.37 840 1358.68 840 1363.47 840 1367.76 841.054 1371.56 843.161 1375.36 845.269 1378.25 847.913 1380.27 851.115L1380.76 851.115 1380.76 842.004 1391 842.004 1391 902.164C1391 909.064 1389.66 914.932 1386.95 919.725 1384.25 924.538 1380.58 928.112 1375.91 930.467 1371.25 932.823 1365.96 934 1360.06 934 1352.51 934.021 1346.32 932.224 1341.51 928.587ZM1370.57 894.128C1373.68 892.227 1376.18 889.5 1378.08 885.926 1379.98 882.373 1380.93 878.179 1380.93 873.344 1380.93 868.51 1379.98 864.295 1378.08 860.701 1376.18 857.106 1373.68 854.379 1370.57 852.499 1367.45 850.64 1364.05 849.71 1360.33 849.71 1356.62 849.71 1353.21 850.661 1350.09 852.561 1346.98 854.462 1344.48 857.189 1342.58 860.763 1340.68 864.316 1339.73 868.51 1339.73 873.344 1339.73 878.179 1340.68 882.373 1342.58 885.926 1344.48 889.479 1346.98 892.206 1350.09 894.128 1353.21 896.028 1356.62 896.979 1360.33 896.979 1364.02 896.999 1367.45 896.049 1370.57 894.128Z" fill="#656C73" fill-rule="evenodd"/><path d="M1405 814 1416 814 1416 905 1405 905 1405 814Z" fill="#656C73" fill-rule="evenodd"/><path d="M1441.24 902.705C1436.49 899.821 1432.74 895.858 1430.05 890.774 1427.34 885.69 1426 879.943 1426 873.51 1426 867.41 1427.26 861.808 1429.81 856.683 1432.33 851.558 1435.95 847.511 1440.62 844.503 1445.3 841.494 1450.68 840 1456.76 840 1462.84 840 1468.18 841.37 1472.77 844.129 1477.36 846.889 1480.9 850.748 1483.34 855.749 1485.78 860.75 1487 866.497 1487 873.013 1487 874.195 1486.92 875.046 1486.75 875.544L1436.9 875.544C1437.07 880.275 1438.2 884.279 1440.31 887.537 1442.42 890.795 1445.05 893.222 1448.22 894.841 1451.38 896.459 1454.65 897.248 1458.02 897.248 1465.94 897.248 1472.07 893.347 1476.37 885.566L1485.86 890.131C1483.15 895.214 1479.43 899.302 1474.67 902.373 1469.91 905.465 1464.18 907 1457.52 907 1451.42 907.021 1446 905.568 1441.24 902.705ZM1475.6 866.518C1475.44 863.986 1474.71 861.434 1473.45 858.903 1472.19 856.371 1470.14 854.214 1467.31 852.429 1464.47 850.645 1460.88 849.773 1456.49 849.773 1451.77 849.773 1447.68 851.288 1444.22 854.338 1440.77 857.388 1438.58 861.455 1437.65 866.518L1475.6 866.518Z" fill="#656C73" fill-rule="evenodd"/><path d="M1528 814 1555.36 814C1564.61 814 1572.67 815.932 1579.57 819.776 1586.45 823.64 1591.75 829 1595.46 835.857 1599.15 842.713 1601 850.608 1601 859.5 1601 868.393 1599.15 876.288 1595.46 883.144 1591.75 890 1586.47 895.36 1579.57 899.225 1572.69 903.089 1564.61 905 1555.36 905L1528 905 1528 814ZM1555.34 894.696C1566.01 894.696 1574.46 891.6 1580.68 885.409 1586.91 879.217 1590.02 870.574 1590.02 859.479 1590.02 848.385 1586.91 839.742 1580.68 833.55 1574.46 827.359 1566.01 824.263 1555.34 824.263L1538.69 824.263 1538.69 894.675 1555.34 894.675Z" fill="#656C73" fill-rule="evenodd"/><path d="M1625.25 902.705C1620.49 899.821 1616.74 895.858 1614.05 890.774 1611.34 885.69 1610 879.943 1610 873.51 1610 867.41 1611.26 861.808 1613.81 856.683 1616.33 851.558 1619.95 847.511 1624.62 844.503 1629.3 841.494 1634.68 840 1640.76 840 1646.84 840 1652.18 841.37 1656.77 844.129 1661.36 846.889 1664.9 850.748 1667.34 855.749 1669.78 860.75 1671 866.497 1671 873.013 1671 874.195 1670.92 875.046 1670.75 875.544L1620.9 875.544C1621.07 880.275 1622.2 884.279 1624.31 887.537 1626.42 890.795 1629.05 893.222 1632.22 894.841 1635.38 896.459 1638.65 897.248 1642.02 897.248 1649.94 897.248 1656.07 893.347 1660.37 885.566L1669.86 890.131C1667.15 895.214 1663.43 899.302 1658.67 902.373 1653.91 905.465 1648.18 907 1641.52 907 1635.42 907.021 1630 905.568 1625.25 902.705ZM1659.6 866.518C1659.44 863.986 1658.71 861.434 1657.45 858.903 1656.19 856.371 1654.14 854.214 1651.31 852.429 1648.47 850.645 1644.88 849.773 1640.49 849.773 1635.77 849.773 1631.68 851.288 1628.22 854.338 1624.77 857.388 1622.58 861.455 1621.65 866.518L1659.6 866.518Z" fill="#656C73" fill-rule="evenodd"/><path d="M1673 842 1684.64 842 1703.88 892.313 1704.12 892.313 1723.61 842 1735 842 1709.31 905 1698.44 905 1673 842Z" fill="#656C73" fill-rule="evenodd"/><path d="M1755.25 902.705C1750.49 899.821 1746.74 895.858 1744.05 890.774 1741.34 885.69 1740 879.943 1740 873.51 1740 867.41 1741.26 861.808 1743.81 856.683 1746.33 851.558 1749.95 847.511 1754.62 844.503 1759.3 841.494 1764.68 840 1770.76 840 1776.84 840 1782.18 841.37 1786.77 844.129 1791.36 846.889 1794.9 850.748 1797.34 855.749 1799.78 860.75 1801 866.497 1801 873.013 1801 874.195 1800.92 875.046 1800.75 875.544L1750.9 875.544C1751.07 880.275 1752.2 884.279 1754.31 887.537 1756.42 890.795 1759.05 893.222 1762.22 894.841 1765.38 896.459 1768.65 897.248 1772.02 897.248 1779.94 897.248 1786.07 893.347 1790.37 885.566L1799.86 890.131C1797.15 895.214 1793.43 899.302 1788.67 902.373 1783.91 905.465 1778.18 907 1771.52 907 1765.42 907.021 1760 905.568 1755.25 902.705ZM1789.6 866.518C1789.44 863.986 1788.71 861.434 1787.45 858.903 1786.19 856.371 1784.14 854.214 1781.31 852.429 1778.47 850.645 1774.88 849.773 1770.49 849.773 1765.77 849.773 1761.68 851.288 1758.22 854.338 1754.77 857.388 1752.58 861.455 1751.65 866.518L1789.6 866.518Z" fill="#656C73" fill-rule="evenodd"/><path d="M1811 814 1822 814 1822 905 1811 905 1811 814Z" fill="#656C73" fill-rule="evenodd"/><path d="M1847.72 902.624C1842.77 899.699 1838.93 895.695 1836.15 890.572 1833.38 885.448 1832 879.765 1832 873.5 1832 867.236 1833.38 861.552 1836.15 856.429 1838.93 851.305 1842.77 847.281 1847.72 844.377 1852.64 841.452 1858.24 840 1864.44 840 1870.64 840 1876.25 841.452 1881.22 844.377 1886.21 847.302 1890.07 851.305 1892.85 856.429 1895.62 861.552 1897 867.236 1897 873.5 1897 879.765 1895.62 885.448 1892.85 890.572 1890.07 895.695 1886.21 899.699 1881.22 902.624 1876.23 905.548 1870.64 907 1864.44 907 1858.24 907 1852.64 905.528 1847.72 902.624ZM1875.17 894.306C1878.49 892.356 1881.14 889.597 1883.14 885.988 1885.14 882.399 1886.15 878.229 1886.15 873.479 1886.15 868.729 1885.14 864.581 1883.14 860.971 1881.14 857.383 1878.49 854.603 1875.17 852.654 1871.85 850.704 1868.28 849.729 1864.44 849.729 1860.7 849.729 1857.15 850.704 1853.83 852.654 1850.51 854.603 1847.84 857.362 1845.86 860.971 1843.86 864.56 1842.85 868.729 1842.85 873.479 1842.85 878.229 1843.86 882.378 1845.86 885.988 1847.86 889.576 1850.51 892.356 1853.83 894.306 1857.15 896.255 1860.68 897.23 1864.44 897.23 1868.28 897.23 1871.85 896.255 1875.17 894.306Z" fill="#656C73" fill-rule="evenodd"/><path d="M1906 842.004 1916.34 842.004 1916.34 851.239 1916.86 851.239C1918.9 848.037 1921.84 845.372 1925.65 843.223 1929.49 841.075 1933.91 840 1938.91 840 1944.35 840 1949.37 841.447 1953.95 844.36 1958.54 847.273 1962.21 851.239 1964.92 856.301 1967.62 861.363 1969 867.044 1969 873.366 1969 879.688 1967.65 885.37 1964.92 890.432 1962.19 895.493 1958.54 899.46 1953.95 902.373 1949.37 905.286 1944.35 906.733 1938.91 906.733 1933.88 906.733 1929.45 905.658 1925.59 903.509 1921.71 901.361 1918.82 898.634 1916.86 895.349L1916.34 895.349 1916.86 904.067 1916.86 932 1906.02 932 1906.02 842.004ZM1947.64 894.089C1950.83 892.147 1953.37 889.399 1955.29 885.804 1957.2 882.23 1958.16 878.077 1958.16 873.346 1958.16 868.615 1957.2 864.483 1955.29 860.888 1953.37 857.313 1950.83 854.545 1947.64 852.603 1944.45 850.661 1940.99 849.69 1937.24 849.69 1933.51 849.69 1930.03 850.64 1926.84 852.541 1923.65 854.442 1921.11 857.169 1919.19 860.764 1917.27 864.338 1916.32 868.532 1916.32 873.346 1916.32 878.056 1917.27 882.23 1919.19 885.866 1921.11 889.481 1923.65 892.25 1926.84 894.15 1930.03 896.051 1933.49 897.002 1937.24 897.002 1940.97 897.002 1944.45 896.031 1947.64 894.089Z" fill="#656C73" fill-rule="evenodd"/><path d="M1993.25 902.705C1988.49 899.821 1984.75 895.858 1982.06 890.774 1979.34 885.69 1978 879.943 1978 873.51 1978 867.41 1979.26 861.808 1981.79 856.683 1984.31 851.558 1987.93 847.511 1992.61 844.503 1997.29 841.494 2002.66 840 2008.75 840 2014.83 840 2020.17 841.37 2024.76 844.129 2029.36 846.889 2032.88 850.748 2035.34 855.749 2037.78 860.75 2039 866.497 2039 873.013 2039 874.195 2038.92 875.046 2038.75 875.544L1988.88 875.544C1989.05 880.275 1990.19 884.279 1992.3 887.537 1994.41 890.795 1997.04 893.222 2000.2 894.841 2003.37 896.459 2006.64 897.248 2010.01 897.248 2017.94 897.248 2024.06 893.347 2028.36 885.566L2037.86 890.131C2035.15 895.214 2031.43 899.302 2026.67 902.373 2021.91 905.465 2016.18 907 2009.51 907 2003.43 907.021 1998.01 905.568 1993.25 902.705ZM2027.62 866.518C2027.45 863.986 2026.73 861.434 2025.47 858.903 2024.21 856.371 2022.16 854.214 2019.32 852.429 2016.49 850.645 2012.89 849.773 2008.5 849.773 2003.76 849.773 1999.69 851.288 1996.23 854.338 1992.77 857.388 1990.58 861.455 1989.65 866.518L2027.62 866.518Z" fill="#656C73" fill-rule="evenodd"/><path d="M2050 842.013 2060.17 842.013 2060.17 852.307 2060.66 852.307C2061.83 848.841 2064.23 845.915 2067.88 843.549 2071.51 841.183 2075.13 840 2078.72 840 2081.31 840 2083.75 840.415 2086 841.266L2086 852.826C2083.75 851.56 2080.81 850.917 2077.23 850.917 2074.29 850.917 2071.57 851.788 2069 853.532 2066.44 855.275 2064.43 857.578 2062.92 860.463 2061.4 863.348 2060.66 866.482 2060.66 869.885L2060.66 905 2050 905 2050 842.013Z" fill="#656C73" fill-rule="evenodd"/><path d="M2133.13 904.075C2128.91 902.166 2125.17 899.386 2121.97 895.693 2118.75 892.021 2116.44 887.56 2115 882.311L2125.17 878.121C2126.59 883.536 2129.23 887.975 2133.07 891.44 2136.93 894.905 2141.4 896.648 2146.5 896.648 2151.78 896.648 2156.21 895.237 2159.82 892.394 2163.41 889.552 2165.21 885.693 2165.21 880.776 2165.21 876.544 2163.67 873.058 2160.64 870.299 2157.58 867.539 2152.58 864.988 2145.64 862.623L2140 860.589C2133.64 858.307 2128.46 855.299 2124.44 851.585 2120.42 847.871 2118.4 842.706 2118.4 836.108 2118.4 831.793 2119.57 827.788 2121.91 824.116 2124.25 820.444 2127.49 817.498 2131.63 815.299 2135.78 813.1 2140.43 812 2145.62 812 2150.81 812 2155.35 812.975 2159.24 814.925 2163.14 816.875 2166.24 819.241 2168.53 822.041 2170.83 824.842 2172.41 827.581 2173.23 830.299L2163.32 834.614C2162.4 831.398 2160.47 828.535 2157.56 826.045 2154.63 823.556 2150.75 822.311 2145.89 822.311 2141.3 822.311 2137.36 823.618 2134.1 826.253 2130.83 828.867 2129.19 832.187 2129.19 836.149 2129.19 839.697 2130.57 842.602 2133.34 844.842 2136.11 847.083 2140.27 849.179 2145.89 851.129L2151.65 853.162C2159.26 855.963 2165.23 859.448 2169.54 863.639 2173.85 867.83 2176 873.515 2176 880.714 2176 886.544 2174.52 891.461 2171.55 895.444 2168.57 899.428 2164.84 902.353 2160.31 904.2 2155.8 906.067 2151.1 907.001 2146.26 907.001 2141.73 906.938 2137.36 905.984 2133.13 904.075Z" fill="#656C73" fill-rule="evenodd"/><path d="M2202.37 905.705C2200.24 904.842 2198.41 903.69 2196.92 902.251 2195.23 900.627 2194 898.735 2193.22 896.556 2192.42 894.377 2192.03 891.786 2192.03 888.805L2192.03 852.29 2181 852.29 2181 842.607 2192.03 842.607 2192.03 824 2202.58 824 2202.58 842.607 2217.88 842.607 2217.88 852.29 2202.58 852.29 2202.58 886.255C2202.58 889.854 2203.29 892.526 2204.71 894.233 2206.12 896.124 2208.3 897.07 2211.23 897.07 2213.82 897.07 2216.09 896.494 2218 895.302L2218 905.623C2216.67 906.137 2215.4 906.486 2214.16 906.692 2212.95 906.898 2211.33 907 2209.32 907 2206.82 907 2204.5 906.569 2202.37 905.705Z" fill="#656C73" fill-rule="evenodd"/><path d="M2234.93 900.276C2230.98 895.794 2229 889.567 2229 881.619L2229 842 2239.6 842 2239.6 879.834C2239.6 891.435 2244.72 897.225 2254.93 897.225 2258.33 897.225 2261.39 896.25 2264.1 894.299 2266.79 892.348 2268.87 889.816 2270.34 886.683 2271.79 883.549 2272.52 880.249 2272.52 876.783L2272.52 842 2283 842 2283 904.967 2273.03 904.967 2273.03 895.565 2272.52 895.565C2270.69 898.782 2267.94 901.501 2264.23 903.701 2260.52 905.901 2256.56 907 2252.32 907 2244.68 907 2238.89 904.759 2234.93 900.276Z" fill="#656C73" fill-rule="evenodd"/><path d="M2308.84 902.681C2304.32 899.794 2300.7 895.806 2298.03 890.677 2295.34 885.547 2294 879.815 2294 873.459 2294 867.105 2295.34 861.372 2298.03 856.243 2300.7 851.113 2304.32 847.125 2308.84 844.238 2313.36 841.352 2318.32 839.919 2323.68 839.919 2328.54 839.919 2332.91 840.999 2336.76 843.158 2340.6 845.319 2343.5 848.019 2345.43 851.217L2345.93 851.217 2345.43 842.577 2345.43 814 2356 814 2356 904.965 2345.95 904.965 2345.95 895.557 2345.45 895.557C2343.52 898.859 2340.62 901.601 2336.78 903.76 2332.94 905.921 2328.56 907.001 2323.7 907.001 2318.32 907.001 2313.36 905.547 2308.84 902.681ZM2335.57 894.352C2338.71 892.442 2341.22 889.68 2343.11 886.024 2345 882.39 2345.95 878.195 2345.95 873.439 2345.95 868.6 2345 864.405 2343.11 860.791 2341.22 857.198 2338.71 854.436 2335.57 852.525 2332.42 850.614 2329.01 849.659 2325.31 849.659 2321.63 849.659 2318.2 850.635 2315.05 852.588 2311.9 854.54 2309.4 857.302 2307.51 860.916 2305.61 864.509 2304.67 868.683 2304.67 873.439 2304.67 878.195 2305.61 882.349 2307.51 885.962 2309.4 889.555 2311.9 892.338 2315.05 894.29 2318.2 896.242 2321.61 897.219 2325.31 897.219 2329.01 897.219 2332.42 896.263 2335.57 894.352Z" fill="#656C73" fill-rule="evenodd"/><path d="M2381.25 902.705C2376.49 899.821 2372.75 895.858 2370.06 890.774 2367.34 885.69 2366 879.943 2366 873.51 2366 867.41 2367.26 861.808 2369.79 856.683 2372.31 851.558 2375.93 847.511 2380.61 844.503 2385.28 841.494 2390.66 840 2396.75 840 2402.83 840 2408.17 841.37 2412.76 844.129 2417.36 846.889 2420.87 850.748 2423.34 855.749 2425.78 860.75 2427 866.497 2427 873.013 2427 874.195 2426.92 875.046 2426.75 875.544L2376.88 875.544C2377.05 880.275 2378.19 884.279 2380.3 887.537 2382.41 890.795 2385.04 893.222 2388.2 894.841 2391.37 896.459 2394.64 897.248 2398.01 897.248 2405.94 897.248 2412.06 893.347 2416.36 885.566L2425.86 890.131C2423.15 895.214 2419.43 899.302 2414.67 902.373 2409.91 905.465 2404.18 907 2397.51 907 2391.45 907.021 2386.03 905.568 2381.25 902.705ZM2415.62 866.518C2415.45 863.986 2414.73 861.434 2413.47 858.903 2412.21 856.371 2410.16 854.214 2407.32 852.429 2404.49 850.645 2400.89 849.773 2396.5 849.773 2391.76 849.773 2387.69 851.288 2384.23 854.338 2380.77 857.388 2378.58 861.455 2377.65 866.518L2415.62 866.518Z" fill="#656C73" fill-rule="evenodd"/><path d="M2438.02 842.034 2448.31 842.034 2448.31 851.435 2448.81 851.435C2450.6 848.219 2453.38 845.521 2457.2 843.3 2461 841.1 2465.06 840 2469.38 840 2477.08 840 2482.95 842.241 2486.96 846.724 2490.99 851.207 2493 857.35 2493 865.133L2493 905 2482.33 905 2482.33 866.772C2482.33 855.441 2477.04 849.755 2466.45 849.755 2463.07 849.755 2460.02 850.73 2457.3 852.681 2454.58 854.631 2452.51 857.163 2451.01 860.297 2449.54 863.431 2448.79 866.731 2448.79 870.197L2448.79 904.98 2438 904.98 2438 842.034Z" fill="#656C73" fill-rule="evenodd"/><path d="M2520.37 905.705C2518.24 904.842 2516.41 903.69 2514.92 902.251 2513.23 900.627 2512 898.735 2511.22 896.556 2510.42 894.377 2510.03 891.786 2510.03 888.805L2510.03 852.29 2499 852.29 2499 842.607 2510.03 842.607 2510.03 824 2520.58 824 2520.58 842.607 2535.88 842.607 2535.88 852.29 2520.58 852.29 2520.58 886.255C2520.58 889.854 2521.29 892.526 2522.71 894.233 2524.12 896.124 2526.3 897.07 2529.23 897.07 2531.82 897.07 2534.09 896.494 2536 895.302L2536 905.623C2534.67 906.137 2533.4 906.486 2532.16 906.692 2530.95 906.898 2529.33 907 2527.32 907 2524.82 907 2522.5 906.569 2520.37 905.705Z" fill="#656C73" fill-rule="evenodd"/><path d="M2593.87 900.791C2586.75 896.638 2581.16 890.928 2577.1 883.64 2573.03 876.351 2571 868.315 2571 859.51 2571 850.706 2573.03 842.649 2577.1 835.381 2581.16 828.093 2586.75 822.383 2593.87 818.229 2601 814.076 2608.86 812 2617.48 812 2624.26 812 2630.44 813.287 2636 815.883 2641.56 818.479 2646.37 822.133 2650.37 826.868L2642.84 834.364C2639.49 830.211 2635.73 827.158 2631.59 825.227 2627.44 823.275 2622.74 822.299 2617.46 822.299 2611.01 822.299 2605.06 823.836 2599.62 826.93 2594.18 830.024 2589.85 834.385 2586.62 840.012 2583.4 845.639 2581.78 852.139 2581.78 859.51 2581.78 866.882 2583.4 873.381 2586.62 879.009 2589.85 884.636 2594.18 888.997 2599.62 892.091 2605.06 895.185 2611.01 896.722 2617.46 896.722 2628.43 896.722 2637.73 892.195 2645.34 883.12L2653 890.741C2648.89 895.746 2643.78 899.691 2637.68 902.619 2631.57 905.547 2624.83 907 2617.46 907 2608.86 907.021 2601 904.944 2593.87 900.791Z" fill="#656C73" fill-rule="evenodd"/><path d="M2663 814 2674 814 2674 905 2663 905 2663 814Z" fill="#656C73" fill-rule="evenodd"/><path d="M2694.04 900.276C2690.01 895.794 2688 889.567 2688 881.619L2688 842 2698.8 842 2698.8 879.834C2698.8 891.435 2704.01 897.225 2714.41 897.225 2717.88 897.225 2720.99 896.25 2723.75 894.299 2726.49 892.348 2728.61 889.816 2730.11 886.683 2731.58 883.549 2732.33 880.249 2732.33 876.783L2732.33 842 2743 842 2743 904.967 2732.85 904.967 2732.85 895.565 2732.33 895.565C2730.46 898.782 2727.66 901.501 2723.88 903.701 2720.1 905.901 2716.07 907 2711.75 907 2703.97 907 2698.07 904.759 2694.04 900.276Z" fill="#656C73" fill-rule="evenodd"/><path d="M2776.58 903.76C2772.7 901.601 2769.8 898.859 2767.84 895.557L2767.34 895.557 2767.34 904.965 2757 904.965 2757 814 2767.84 814 2767.84 842.577 2767.34 851.217 2767.84 851.217C2769.88 847.998 2772.82 845.319 2776.64 843.158 2780.45 840.999 2784.89 839.919 2789.9 839.919 2795.34 839.919 2800.36 841.373 2804.95 844.301 2809.53 847.229 2813.2 851.217 2815.91 856.305 2818.62 861.393 2820 867.105 2820 873.459 2820 879.815 2818.65 885.526 2815.91 890.614 2813.18 895.702 2809.53 899.69 2804.95 902.618 2800.36 905.547 2795.34 907.001 2789.9 907.001 2784.89 907.001 2780.45 905.921 2776.58 903.76ZM2798.63 894.29C2801.82 892.338 2804.36 889.576 2806.28 885.962 2808.2 882.369 2809.16 878.195 2809.16 873.439 2809.16 868.683 2808.2 864.529 2806.28 860.916 2804.36 857.323 2801.82 854.54 2798.63 852.588 2795.44 850.635 2791.98 849.659 2788.23 849.659 2784.48 849.659 2781.02 850.614 2777.83 852.525 2774.64 854.436 2772.09 857.177 2770.18 860.791 2768.26 864.384 2767.3 868.6 2767.3 873.439 2767.3 878.174 2768.26 882.369 2770.18 886.024 2772.09 889.68 2774.64 892.442 2777.83 894.352 2781.02 896.263 2784.48 897.219 2788.23 897.219 2791.98 897.219 2795.44 896.242 2798.63 894.29Z" fill="#656C73" fill-rule="evenodd"/><path d="M2834.82 901.978C2830.15 898.596 2826.88 894.404 2825 889.404L2834.57 885.212C2836.28 889.196 2838.67 892.246 2841.78 894.363 2844.88 896.479 2848.26 897.537 2851.91 897.537 2855.99 897.537 2859.37 896.645 2862.04 894.861 2864.7 893.076 2866.06 890.918 2866.06 888.387 2866.06 885.938 2865.06 883.905 2863.06 882.287 2861.06 880.689 2857.64 879.278 2852.8 878.095L2844.13 875.938C2839.36 874.838 2835.32 872.846 2831.96 869.962 2828.61 867.078 2826.92 863.28 2826.92 858.529 2826.92 854.628 2828.04 851.288 2830.29 848.507 2832.54 845.706 2835.55 843.61 2839.28 842.158 2843.01 840.726 2847.09 840 2851.51 840 2856.95 840 2861.91 841.245 2866.37 843.735 2870.83 846.225 2874 849.773 2875.87 854.337L2866.31 858.405C2864.95 855.354 2862.89 853.114 2860.12 851.682 2857.35 850.25 2854.28 849.524 2850.86 849.524 2847.55 849.524 2844.55 850.333 2841.88 851.931 2839.19 853.549 2837.86 855.604 2837.86 858.155 2837.86 860.355 2838.73 862.098 2840.46 863.364 2842.19 864.629 2844.99 865.77 2848.82 866.787L2858.26 869.07C2864.56 870.688 2869.25 873.074 2872.35 876.249 2875.46 879.423 2877 883.2 2877 887.598 2877 891.229 2875.94 894.529 2873.81 897.496 2871.69 900.463 2868.71 902.787 2864.89 904.467 2861.08 906.169 2856.72 906.999 2851.89 906.999 2845.17 907.061 2839.48 905.36 2834.82 901.978Z" fill="#656C73" fill-rule="evenodd"/><path d="M1346.99 1052.84C1343.5 1050.74 1340.81 1047.81 1338.88 1044.05 1336.95 1040.29 1336 1035.96 1336 1031.04L1336 991 1343.42 991 1343.42 1031.4C1343.42 1036.56 1344.76 1040.73 1347.44 1043.97 1350.12 1047.19 1353.95 1048.8 1358.96 1048.8 1363.97 1048.8 1367.82 1047.19 1370.52 1043.97 1373.22 1040.75 1374.58 1036.56 1374.58 1031.4L1374.58 991 1382 991 1382 1031.04C1382 1035.96 1381.09 1040.31 1379.26 1044.09 1377.44 1047.87 1374.78 1050.8 1371.27 1052.88 1367.78 1054.95 1363.69 1056 1358.98 1056 1354.48 1056 1350.48 1054.95 1346.99 1052.84Z" fill="#656C73" fill-rule="evenodd"/><path d="M1393.02 1010.44 1400.31 1010.44 1400.31 1017.08 1400.66 1017.08C1401.92 1014.8 1403.91 1012.88 1406.61 1011.34 1409.31 1009.77 1412.2 1009 1415.25 1009 1420.72 1009 1424.86 1010.59 1427.73 1013.76 1430.58 1016.93 1432 1021.28 1432 1026.79L1432 1054.98 1424.44 1054.98 1424.44 1027.96C1424.44 1019.94 1420.7 1015.93 1413.18 1015.93 1410.77 1015.93 1408.62 1016.62 1406.69 1018 1404.76 1019.38 1403.28 1021.17 1402.23 1023.39 1401.19 1025.6 1400.66 1027.94 1400.66 1030.4L1400.66 1055 1393 1055 1393 1010.44Z" fill="#656C73" fill-rule="evenodd"/><path d="M1443.47 999.333C1442.48 998.248 1442 996.974 1442 995.471 1442 993.967 1442.5 992.693 1443.47 991.608 1444.46 990.522 1445.63 990 1447 990 1448.37 990 1449.54 990.543 1450.53 991.608 1451.52 992.693 1452 993.967 1452 995.471 1452 996.974 1451.52 998.248 1450.57 999.333 1449.61 1000.42 1448.41 1000.94 1447 1000.94 1445.65 1000.94 1444.46 1000.4 1443.47 999.333ZM1443.56 1010.46 1450.45 1010.46 1450.45 1055 1443.56 1055 1443.56 1010.46Z" fill="#656C73" fill-rule="evenodd"/><path d="M1458 1011 1466.08 1011 1479.42 1046.13 1479.6 1046.13 1493.11 1011 1501 1011 1483.19 1055 1475.64 1055 1458 1011Z" fill="#656C73" fill-rule="evenodd"/><path d="M1513.77 1052.98C1510.41 1050.97 1507.77 1048.18 1505.86 1044.62 1503.95 1041.06 1503 1037.02 1503 1032.51 1503 1028.25 1503.89 1024.31 1505.68 1020.71 1507.46 1017.13 1510.01 1014.28 1513.31 1012.17 1516.61 1010.06 1520.4 1009 1524.68 1009 1528.95 1009 1532.72 1009.97 1535.96 1011.9 1539.2 1013.82 1541.69 1016.53 1543.41 1020.05 1545.13 1023.55 1546 1027.58 1546 1032.16 1546 1032.99 1545.94 1033.59 1545.81 1033.94L1510.65 1033.94C1510.78 1037.27 1511.57 1040.06 1513.06 1042.34 1514.55 1044.62 1516.4 1046.34 1518.64 1047.45 1520.88 1048.57 1523.18 1049.15 1525.55 1049.15 1531.15 1049.15 1535.44 1046.42 1538.49 1040.95L1545.19 1044.16C1543.28 1047.72 1540.65 1050.58 1537.29 1052.75 1533.93 1054.92 1529.9 1056 1525.2 1056 1520.94 1056 1517.13 1054.99 1513.77 1052.98ZM1537.99 1027.61C1537.87 1025.83 1537.37 1024.05 1536.48 1022.27 1535.59 1020.49 1534.16 1018.98 1532.14 1017.73 1530.15 1016.49 1527.6 1015.87 1524.51 1015.87 1521.17 1015.87 1518.29 1016.95 1515.86 1019.08 1513.41 1021.21 1511.88 1024.07 1511.21 1027.63L1537.99 1027.63Z" fill="#656C73" fill-rule="evenodd"/><path d="M1554.04 1010.44 1561.37 1010.44 1561.37 1017.72 1561.73 1017.72C1562.57 1015.25 1564.32 1013.18 1566.93 1011.51 1569.54 1009.84 1572.17 1009 1574.76 1009 1576.63 1009 1578.38 1009.29 1580 1009.9L1580 1018.07C1578.38 1017.17 1576.25 1016.71 1573.66 1016.71 1571.56 1016.71 1569.58 1017.32 1567.73 1018.55 1565.87 1019.78 1564.42 1021.41 1563.33 1023.46 1562.23 1025.51 1561.71 1027.73 1561.71 1030.13L1561.71 1055 1554 1055 1554 1010.44Z" fill="#656C73" fill-rule="evenodd"/><path d="M1588.79 1052.38C1585.55 1050 1583.29 1047.06 1582 1043.57L1588.63 1040.63C1589.79 1043.42 1591.46 1045.55 1593.61 1047.04 1595.76 1048.53 1598.1 1049.28 1600.63 1049.28 1603.46 1049.28 1605.79 1048.66 1607.64 1047.42 1609.49 1046.17 1610.43 1044.66 1610.43 1042.89 1610.43 1041.17 1609.73 1039.74 1608.36 1038.62 1606.98 1037.51 1604.6 1036.51 1601.26 1035.69L1595.27 1034.18C1591.97 1033.41 1589.16 1032 1586.84 1030 1584.52 1027.99 1583.35 1025.32 1583.35 1021.99 1583.35 1019.26 1584.13 1016.92 1585.69 1014.96 1587.25 1012.99 1589.32 1011.52 1591.91 1010.51 1594.49 1009.5 1597.32 1009 1600.38 1009 1604.13 1009 1607.56 1009.87 1610.66 1011.63 1613.73 1013.39 1615.93 1015.85 1617.22 1019.05L1610.59 1021.91C1609.65 1019.78 1608.22 1018.21 1606.31 1017.19 1604.4 1016.18 1602.27 1015.68 1599.91 1015.68 1597.61 1015.68 1595.54 1016.24 1593.69 1017.38 1591.85 1018.52 1590.92 1019.96 1590.92 1021.74 1590.92 1023.29 1591.52 1024.49 1592.73 1025.38 1593.94 1026.27 1595.87 1027.08 1598.51 1027.78L1605.04 1029.38C1609.38 1030.49 1612.65 1032.19 1614.78 1034.4 1616.93 1036.64 1618 1039.29 1618 1042.37 1618 1044.91 1617.26 1047.23 1615.78 1049.32 1614.31 1051.41 1612.26 1053.02 1609.61 1054.22 1606.96 1055.4 1603.97 1056 1600.61 1056 1595.97 1055.94 1592.03 1054.76 1588.79 1052.38Z" fill="#656C73" fill-rule="evenodd"/><path d="M1626.62 999.333C1625.52 998.248 1625 996.974 1625 995.471 1625 993.967 1625.55 992.693 1626.62 991.608 1627.71 990.522 1628.99 990 1630.5 990 1632.01 990 1633.29 990.543 1634.38 991.608 1635.48 992.693 1636 993.967 1636 995.471 1636 996.974 1635.48 998.248 1634.43 999.333 1633.38 1000.42 1632.07 1000.94 1630.5 1000.94 1628.99 1000.94 1627.69 1000.4 1626.62 999.333ZM1626.7 1010.46 1634.28 1010.46 1634.28 1055 1626.7 1055 1626.7 1010.46Z" fill="#656C73" fill-rule="evenodd"/><path d="M1657.04 1055.04C1655.54 1054.44 1654.27 1053.61 1653.21 1052.59 1652.04 1051.43 1651.16 1050.08 1650.61 1048.54 1650.05 1046.99 1649.77 1045.16 1649.77 1043.04L1649.77 1017.1 1642 1017.1 1642 1010.23 1649.77 1010.23 1649.77 997 1657.16 997 1657.16 1010.23 1667.92 1010.23 1667.92 1017.1 1657.16 1017.1 1657.16 1041.23C1657.16 1043.79 1657.65 1045.68 1658.66 1046.9 1659.66 1048.25 1661.18 1048.92 1663.25 1048.92 1665.07 1048.92 1666.65 1048.5 1668 1047.67L1668 1055C1667.06 1055.36 1666.16 1055.61 1665.32 1055.77 1664.46 1055.92 1663.33 1056 1661.92 1056 1660.17 1055.96 1658.53 1055.67 1657.04 1055.04Z" fill="#656C73" fill-rule="evenodd"/><path d="M1691.11 1052.07 1673 1011 1681.09 1011 1694.62 1043.3 1694.81 1043.3 1707.91 1011 1716 1011 1688.76 1074 1681.11 1074 1691.11 1052.07Z" fill="#656C73" fill-rule="evenodd"/><path d="M1750.87 1052.94C1747.46 1050.89 1744.79 1048.07 1742.88 1044.47 1740.97 1040.89 1740 1036.9 1740 1032.51 1740 1028.12 1740.97 1024.13 1742.88 1020.53 1744.79 1016.95 1747.46 1014.11 1750.87 1012.06 1754.29 1010.01 1758.15 1009 1762.45 1009 1766.75 1009 1770.63 1010.01 1774.08 1012.06 1777.54 1014.11 1780.21 1016.93 1782.12 1020.53 1784.03 1024.13 1785 1028.1 1785 1032.51 1785 1036.92 1784.03 1040.89 1782.12 1044.47 1780.21 1048.07 1777.52 1050.89 1774.08 1052.94 1770.65 1054.99 1766.77 1056 1762.45 1056 1758.15 1056 1754.31 1054.99 1750.87 1052.94ZM1769.89 1047.1C1772.19 1045.73 1774.02 1043.79 1775.42 1041.26 1776.8 1038.74 1777.5 1035.82 1777.5 1032.49 1777.5 1029.16 1776.8 1026.24 1775.42 1023.71 1774.04 1021.19 1772.19 1019.24 1769.89 1017.88 1767.59 1016.51 1765.12 1015.83 1762.47 1015.83 1759.88 1015.83 1757.43 1016.51 1755.13 1017.88 1752.83 1019.24 1751 1021.19 1749.6 1023.71 1748.22 1026.24 1747.52 1029.16 1747.52 1032.49 1747.52 1035.82 1748.22 1038.74 1749.6 1041.26 1750.98 1043.79 1752.83 1045.73 1755.13 1047.1 1757.43 1048.47 1759.88 1049.15 1762.47 1049.15 1765.12 1049.15 1767.59 1048.47 1769.89 1047.1Z" fill="#656C73" fill-rule="evenodd"/><path d="M1797.26 1017.39 1789 1017.39 1789 1010.48 1797.26 1010.48 1797.26 1004.28C1797.26 1001.4 1797.9 998.892 1799.16 996.742 1800.43 994.592 1802.15 992.922 1804.29 991.754 1806.46 990.584 1808.86 990 1811.52 990 1813.01 990 1814.2 990.084 1815.11 990.271 1816.02 990.459 1816.99 990.71 1818 991.086L1818 998.537C1816.1 997.577 1814.04 997.097 1811.79 997.097 1809.83 997.097 1808.18 997.807 1806.81 999.205 1805.45 1000.6 1804.77 1002.57 1804.77 1005.09L1804.77 1010.48 1816.14 1010.48 1816.14 1017.39 1804.77 1017.39 1804.77 1055 1797.22 1055 1797.22 1017.39Z" fill="#656C73" fill-rule="evenodd"/><path d="M1856.8 998.234 1839 998.234 1839 991 1882 991 1882 998.234 1864.22 998.234 1864.22 1055 1856.8 1055 1856.8 998.234Z" fill="#656C73" fill-rule="evenodd"/><path d="M1891.12 1052.94C1887.63 1050.89 1884.9 1048.07 1882.94 1044.47 1880.99 1040.89 1880 1036.9 1880 1032.51 1880 1028.12 1880.99 1024.13 1882.94 1020.53 1884.9 1016.95 1887.63 1014.11 1891.12 1012.06 1894.6 1010.01 1898.56 1009 1902.95 1009 1907.34 1009 1911.31 1010.01 1914.84 1012.06 1918.37 1014.11 1921.1 1016.93 1923.06 1020.53 1925.01 1024.13 1926 1028.1 1926 1032.51 1926 1036.92 1925.01 1040.89 1923.06 1044.47 1921.1 1048.07 1918.35 1050.89 1914.84 1052.94 1911.31 1054.99 1907.36 1056 1902.95 1056 1898.53 1056 1894.63 1054.99 1891.12 1052.94ZM1910.55 1047.1C1912.91 1045.73 1914.78 1043.79 1916.21 1041.26 1917.64 1038.74 1918.33 1035.82 1918.33 1032.49 1918.33 1029.16 1917.62 1026.24 1916.21 1023.71 1914.8 1021.19 1912.91 1019.24 1910.55 1017.88 1908.2 1016.51 1905.68 1015.83 1902.97 1015.83 1900.32 1015.83 1897.82 1016.51 1895.47 1017.88 1893.11 1019.24 1891.24 1021.19 1889.81 1023.71 1888.38 1026.24 1887.69 1029.16 1887.69 1032.49 1887.69 1035.82 1888.41 1038.74 1889.81 1041.26 1891.22 1043.79 1893.11 1045.73 1895.47 1047.1 1897.82 1048.47 1900.32 1049.15 1902.97 1049.15 1905.68 1049.15 1908.2 1048.47 1910.55 1047.1Z" fill="#656C73" fill-rule="evenodd"/><path d="M1933.04 1010.44 1940.37 1010.44 1940.37 1017.72 1940.73 1017.72C1941.57 1015.25 1943.32 1013.18 1945.93 1011.51 1948.54 1009.84 1951.17 1009 1953.76 1009 1955.63 1009 1957.38 1009.29 1959 1009.9L1959 1018.07C1957.38 1017.17 1955.25 1016.71 1952.66 1016.71 1950.56 1016.71 1948.58 1017.32 1946.73 1018.55 1944.87 1019.78 1943.42 1021.41 1942.33 1023.46 1941.23 1025.51 1940.71 1027.73 1940.71 1030.13L1940.71 1055 1933 1055 1933 1010.44Z" fill="#656C73" fill-rule="evenodd"/><path d="M1971.87 1052.94C1968.46 1050.89 1965.79 1048.07 1963.88 1044.47 1961.97 1040.89 1961 1036.9 1961 1032.51 1961 1028.12 1961.97 1024.13 1963.88 1020.53 1965.79 1016.95 1968.46 1014.11 1971.87 1012.06 1975.29 1010.01 1979.15 1009 1983.45 1009 1987.75 1009 1991.63 1010.01 1995.08 1012.06 1998.54 1014.11 2001.21 1016.93 2003.12 1020.53 2005.03 1024.13 2006 1028.1 2006 1032.51 2006 1036.92 2005.03 1040.89 2003.12 1044.47 2001.21 1048.07 1998.52 1050.89 1995.08 1052.94 1991.65 1054.99 1987.77 1056 1983.45 1056 1979.15 1056 1975.29 1054.99 1971.87 1052.94ZM1990.89 1047.1C1993.19 1045.73 1995.02 1043.79 1996.42 1041.26 1997.8 1038.74 1998.5 1035.82 1998.5 1032.49 1998.5 1029.16 1997.8 1026.24 1996.42 1023.71 1995.04 1021.19 1993.19 1019.24 1990.89 1017.88 1988.59 1016.51 1986.12 1015.83 1983.47 1015.83 1980.88 1015.83 1978.43 1016.51 1976.13 1017.88 1973.83 1019.24 1972 1021.19 1970.6 1023.71 1969.22 1026.24 1968.52 1029.16 1968.52 1032.49 1968.52 1035.82 1969.22 1038.74 1970.6 1041.26 1971.98 1043.79 1973.83 1045.73 1976.13 1047.1 1978.43 1048.47 1980.88 1049.15 1983.47 1049.15 1986.12 1049.15 1988.59 1048.47 1990.89 1047.1Z" fill="#656C73" fill-rule="evenodd"/><path d="M2013.02 1010.44 2020.31 1010.44 2020.31 1017.08 2020.66 1017.08C2021.92 1014.8 2023.91 1012.88 2026.61 1011.34 2029.31 1009.77 2032.2 1009 2035.25 1009 2040.72 1009 2044.86 1010.59 2047.73 1013.76 2050.58 1016.93 2052 1021.28 2052 1026.79L2052 1054.98 2044.44 1054.98 2044.44 1027.96C2044.44 1019.94 2040.7 1015.93 2033.18 1015.93 2030.77 1015.93 2028.62 1016.62 2026.69 1018 2024.77 1019.38 2023.28 1021.17 2022.23 1023.39 2021.19 1025.6 2020.66 1027.94 2020.66 1030.4L2020.66 1055 2013 1055 2013 1010.44Z" fill="#656C73" fill-rule="evenodd"/><path d="M2072.04 1055.04C2070.54 1054.44 2069.27 1053.61 2068.21 1052.59 2067.04 1051.43 2066.16 1050.08 2065.61 1048.54 2065.05 1046.99 2064.77 1045.16 2064.77 1043.04L2064.77 1017.1 2057 1017.1 2057 1010.23 2064.77 1010.23 2064.77 997 2072.16 997 2072.16 1010.23 2082.92 1010.23 2082.92 1017.1 2072.16 1017.1 2072.16 1041.23C2072.16 1043.79 2072.65 1045.68 2073.66 1046.9 2074.66 1048.25 2076.18 1048.92 2078.25 1048.92 2080.07 1048.92 2081.65 1048.5 2083 1047.67L2083 1055C2082.06 1055.36 2081.16 1055.61 2080.32 1055.77 2079.46 1055.92 2078.33 1056 2076.92 1056 2075.17 1055.96 2073.53 1055.67 2072.04 1055.04Z" fill="#656C73" fill-rule="evenodd"/><path d="M2098.88 1052.94C2095.46 1050.89 2092.79 1048.07 2090.88 1044.47 2088.97 1040.89 2088 1036.9 2088 1032.51 2088 1028.12 2088.97 1024.13 2090.88 1020.53 2092.79 1016.95 2095.46 1014.11 2098.88 1012.06 2102.29 1010.01 2106.15 1009 2110.45 1009 2114.75 1009 2118.63 1010.01 2122.08 1012.06 2125.54 1014.11 2128.21 1016.93 2130.12 1020.53 2132.03 1024.13 2133 1028.1 2133 1032.51 2133 1036.92 2132.03 1040.89 2130.12 1044.47 2128.21 1048.07 2125.52 1050.89 2122.08 1052.94 2118.65 1054.99 2114.77 1056 2110.45 1056 2106.15 1056 2102.29 1054.99 2098.88 1052.94ZM2117.89 1047.1C2120.19 1045.73 2122.02 1043.79 2123.42 1041.26 2124.8 1038.74 2125.5 1035.82 2125.5 1032.49 2125.5 1029.16 2124.8 1026.24 2123.42 1023.71 2122.04 1021.19 2120.19 1019.24 2117.89 1017.88 2115.59 1016.51 2113.12 1015.83 2110.47 1015.83 2107.88 1015.83 2105.43 1016.51 2103.13 1017.88 2100.83 1019.24 2099 1021.19 2097.6 1023.71 2096.22 1026.24 2095.52 1029.16 2095.52 1032.49 2095.52 1035.82 2096.22 1038.74 2097.6 1041.26 2098.98 1043.79 2100.83 1045.73 2103.13 1047.1 2105.43 1048.47 2107.88 1049.15 2110.47 1049.15 2113.1 1049.15 2115.59 1048.47 2117.89 1047.1Z" fill="#656C73" fill-rule="evenodd"/><path d="M2163 991 2173.96 991 2194.37 1043.48 2194.72 1043.48 2215.04 991 2226 991 2226 1055 2218.42 1055 2218.42 1014.32 2218.77 1002.16 2218.42 1002.16 2197.66 1055 2191.34 1055 2170.58 1002.16 2170.23 1002.16 2170.58 1014.32 2170.58 1055 2163 1055 2163 991Z" fill="#656C73" fill-rule="evenodd"/><path d="M2239.47 999.333C2238.48 998.248 2238 996.974 2238 995.471 2238 993.967 2238.5 992.693 2239.47 991.608 2240.46 990.522 2241.63 990 2243 990 2244.37 990 2245.54 990.543 2246.53 991.608 2247.52 992.693 2248 993.967 2248 995.471 2248 996.974 2247.52 998.248 2246.57 999.333 2245.61 1000.42 2244.43 1000.94 2243 1000.94 2241.63 1000.94 2240.46 1000.4 2239.47 999.333ZM2239.55 1010.46 2246.44 1010.46 2246.44 1055 2239.55 1055 2239.55 1010.46Z" fill="#656C73" fill-rule="evenodd"/><path d="M2261.79 1052.38C2258.55 1050 2256.29 1047.06 2255 1043.57L2261.63 1040.63C2262.79 1043.42 2264.46 1045.55 2266.61 1047.04 2268.76 1048.53 2271.1 1049.28 2273.63 1049.28 2276.46 1049.28 2278.8 1048.66 2280.64 1047.42 2282.49 1046.17 2283.43 1044.66 2283.43 1042.89 2283.43 1041.17 2282.73 1039.74 2281.36 1038.62 2279.98 1037.51 2277.61 1036.51 2274.26 1035.69L2268.27 1034.18C2264.97 1033.41 2262.16 1032 2259.84 1030 2257.52 1027.99 2256.35 1025.32 2256.35 1021.99 2256.35 1019.26 2257.13 1016.92 2258.69 1014.96 2260.25 1012.99 2262.32 1011.52 2264.91 1010.51 2267.49 1009.5 2270.32 1009 2273.38 1009 2277.13 1009 2280.56 1009.87 2283.66 1011.63 2286.73 1013.39 2288.93 1015.85 2290.22 1019.05L2283.59 1021.91C2282.65 1019.78 2281.22 1018.21 2279.31 1017.19 2277.4 1016.18 2275.27 1015.68 2272.91 1015.68 2270.61 1015.68 2268.54 1016.24 2266.69 1017.38 2264.85 1018.52 2263.92 1019.96 2263.92 1021.74 2263.92 1023.29 2264.52 1024.49 2265.73 1025.38 2266.94 1026.27 2268.87 1027.08 2271.51 1027.78L2278.04 1029.38C2282.39 1030.49 2285.65 1032.19 2287.78 1034.4 2289.93 1036.64 2291 1039.29 2291 1042.37 2291 1044.91 2290.26 1047.23 2288.79 1049.32 2287.31 1051.41 2285.26 1053.02 2282.61 1054.22 2279.96 1055.4 2276.97 1056 2273.61 1056 2268.97 1055.94 2265.01 1054.76 2261.79 1052.38Z" fill="#656C73" fill-rule="evenodd"/><path d="M2302.98 1052.38C2299.65 1050 2297.33 1047.06 2296 1043.57L2302.81 1040.63C2304.01 1043.42 2305.72 1045.55 2307.93 1047.04 2310.15 1048.53 2312.55 1049.28 2315.14 1049.28 2318.05 1049.28 2320.46 1048.66 2322.35 1047.42 2324.25 1046.17 2325.22 1044.66 2325.22 1042.89 2325.22 1041.17 2324.5 1039.74 2323.09 1038.62 2321.68 1037.51 2319.23 1036.51 2315.8 1035.69L2309.64 1034.18C2306.25 1033.41 2303.36 1032 2300.98 1030 2298.59 1027.99 2297.39 1025.32 2297.39 1021.99 2297.39 1019.26 2298.19 1016.92 2299.79 1014.96 2301.4 1012.99 2303.53 1011.52 2306.18 1010.51 2308.84 1009.5 2311.75 1009 2314.89 1009 2318.75 1009 2322.27 1009.87 2325.45 1011.63 2328.61 1013.39 2330.87 1015.85 2332.2 1019.05L2325.39 1021.91C2324.42 1019.78 2322.94 1018.21 2320.98 1017.19 2319.02 1016.18 2316.83 1015.68 2314.41 1015.68 2312.04 1015.68 2309.91 1016.24 2308.02 1017.38 2306.12 1018.52 2305.17 1019.96 2305.17 1021.74 2305.17 1023.29 2305.78 1024.49 2307.03 1025.38 2308.27 1026.27 2310.25 1027.08 2312.97 1027.78L2319.68 1029.38C2324.15 1030.49 2327.5 1032.19 2329.69 1034.4 2331.9 1036.64 2333 1039.29 2333 1042.37 2333 1044.91 2332.24 1047.23 2330.72 1049.32 2329.21 1051.41 2327.1 1053.02 2324.38 1054.22 2321.66 1055.4 2318.58 1056 2315.12 1056 2310.36 1055.94 2306.31 1054.76 2302.98 1052.38Z" fill="#656C73" fill-rule="evenodd"/><path d="M2340.62 999.333C2339.52 998.248 2339 996.974 2339 995.471 2339 993.967 2339.55 992.693 2340.62 991.608 2341.71 990.522 2342.99 990 2344.5 990 2346.01 990 2347.29 990.543 2348.38 991.608 2349.48 992.693 2350 993.967 2350 995.471 2350 996.974 2349.48 998.248 2348.43 999.333 2347.38 1000.42 2346.07 1000.94 2344.5 1000.94 2342.99 1000.94 2341.69 1000.4 2340.62 999.333ZM2340.7 1010.46 2348.28 1010.46 2348.28 1055 2340.7 1055 2340.7 1010.46Z" fill="#656C73" fill-rule="evenodd"/><path d="M2363.79 1052.38C2360.55 1050 2358.29 1047.06 2357 1043.57L2363.63 1040.63C2364.8 1043.42 2366.46 1045.55 2368.62 1047.04 2370.77 1048.53 2373.11 1049.28 2375.64 1049.28 2378.47 1049.28 2380.81 1048.66 2382.66 1047.42 2384.5 1046.17 2385.43 1044.66 2385.43 1042.89 2385.43 1041.17 2384.73 1039.74 2383.35 1038.62 2381.98 1037.51 2379.6 1036.51 2376.25 1035.69L2370.26 1034.18C2366.95 1033.41 2364.16 1032 2361.82 1030 2359.48 1027.99 2358.33 1025.32 2358.33 1021.99 2358.33 1019.26 2359.11 1016.92 2360.67 1014.96 2362.23 1012.99 2364.31 1011.52 2366.89 1010.51 2369.48 1009.5 2372.31 1009 2375.37 1009 2379.13 1009 2382.57 1009.87 2385.65 1011.63 2388.75 1013.39 2390.93 1015.85 2392.22 1019.05L2385.59 1021.91C2384.65 1019.78 2383.23 1018.21 2381.3 1017.19 2379.37 1016.18 2377.26 1015.68 2374.9 1015.68 2372.6 1015.68 2370.53 1016.24 2368.68 1017.38 2366.83 1018.52 2365.91 1019.96 2365.91 1021.74 2365.91 1023.29 2366.5 1024.49 2367.71 1025.38 2368.92 1026.27 2370.85 1027.08 2373.5 1027.78L2380.03 1029.38C2384.38 1030.49 2387.64 1032.19 2389.78 1034.4 2391.91 1036.62 2393 1039.29 2393 1042.37 2393 1044.91 2392.26 1047.23 2390.78 1049.32 2389.31 1051.39 2387.25 1053.02 2384.61 1054.22 2381.96 1055.42 2378.96 1056 2375.6 1056 2370.98 1055.94 2367.04 1054.76 2363.79 1052.38Z" fill="#656C73" fill-rule="evenodd"/><path d="M2404.79 1052.38C2401.55 1050 2399.29 1047.06 2398 1043.57L2404.63 1040.63C2405.8 1043.42 2407.46 1045.55 2409.62 1047.04 2411.77 1048.53 2414.11 1049.28 2416.64 1049.28 2419.47 1049.28 2421.81 1048.66 2423.66 1047.42 2425.5 1046.17 2426.43 1044.66 2426.43 1042.89 2426.43 1041.17 2425.73 1039.74 2424.35 1038.62 2422.98 1037.51 2420.6 1036.51 2417.25 1035.69L2411.26 1034.18C2407.95 1033.41 2405.16 1032 2402.82 1030 2400.48 1027.99 2399.33 1025.32 2399.33 1021.99 2399.33 1019.26 2400.11 1016.92 2401.67 1014.96 2403.23 1012.99 2405.31 1011.52 2407.89 1010.51 2410.48 1009.5 2413.31 1009 2416.37 1009 2420.13 1009 2423.57 1009.87 2426.65 1011.63 2429.75 1013.39 2431.93 1015.85 2433.22 1019.05L2426.59 1021.91C2425.65 1019.78 2424.23 1018.21 2422.3 1017.19 2420.37 1016.18 2418.26 1015.68 2415.9 1015.68 2413.6 1015.68 2411.53 1016.24 2409.68 1017.38 2407.83 1018.52 2406.91 1019.96 2406.91 1021.74 2406.91 1023.29 2407.5 1024.49 2408.71 1025.38 2409.92 1026.27 2411.85 1027.08 2414.5 1027.78L2421.03 1029.38C2425.38 1030.49 2428.64 1032.19 2430.78 1034.4 2432.91 1036.62 2434 1039.29 2434 1042.37 2434 1044.91 2433.26 1047.23 2431.78 1049.32 2430.31 1051.39 2428.25 1053.02 2425.61 1054.22 2422.96 1055.42 2419.96 1056 2416.6 1056 2411.96 1055.94 2408.02 1054.76 2404.79 1052.38Z" fill="#656C73" fill-rule="evenodd"/><path d="M2448.27 1054.06C2445.67 1052.77 2443.65 1050.99 2442.19 1048.72 2440.73 1046.44 2440 1043.88 2440 1041.02 2440 1036.35 2441.77 1032.69 2445.33 1030.08 2448.9 1027.47 2453.44 1026.17 2459 1026.17 2461.75 1026.17 2464.23 1026.46 2466.44 1027.06 2468.65 1027.66 2470.42 1028.3 2471.73 1029.02L2471.73 1026.71C2471.73 1024.58 2471.17 1022.65 2470.06 1020.98 2468.96 1019.28 2467.48 1017.98 2465.63 1017.07 2463.77 1016.16 2461.77 1015.68 2459.63 1015.68 2454.54 1015.68 2450.67 1017.73 2447.98 1021.83L2441.62 1017.65C2443.48 1014.92 2445.92 1012.81 2448.98 1011.28 2452.02 1009.77 2455.46 1009 2459.29 1009 2465.38 1009 2470.19 1010.63 2473.71 1013.9 2477.23 1017.17 2479 1021.56 2479 1027.08L2479 1054.57 2471.75 1054.57 2471.75 1048.08 2471.4 1048.08C2469.96 1050.33 2468.02 1052.21 2465.56 1053.72 2463.1 1055.23 2460.27 1056 2457.04 1056 2453.79 1055.96 2450.88 1055.32 2448.27 1054.06ZM2464.46 1047.42C2466.6 1046.17 2468.35 1044.48 2469.71 1042.35 2471.04 1040.22 2471.73 1037.9 2471.73 1035.42 2468.38 1033.29 2464.52 1032.21 2460.17 1032.21 2456.4 1032.21 2453.4 1033.06 2451.17 1034.76 2448.94 1036.45 2447.81 1038.6 2447.81 1041.21 2447.81 1043.59 2448.79 1045.53 2450.77 1047.04 2452.75 1048.55 2455.04 1049.32 2457.67 1049.32 2460.02 1049.3 2462.29 1048.66 2464.46 1047.42Z" fill="#656C73" fill-rule="evenodd"/><path d="M2493.16 1051.34C2490.39 1048.23 2489 1043.92 2489 1038.43L2489 1011 2496.47 1011 2496.47 1037.2C2496.47 1045.23 2500.06 1049.24 2507.27 1049.24 2509.65 1049.24 2511.82 1048.56 2513.71 1047.21 2515.61 1045.86 2517.08 1044.11 2518.1 1041.94 2519.12 1039.77 2519.63 1037.49 2519.63 1035.09L2519.63 1011 2527 1011 2527 1054.59 2519.98 1054.59 2519.98 1048.09 2519.63 1048.09C2518.35 1050.32 2516.41 1052.2 2513.8 1053.71 2511.18 1055.24 2508.39 1056 2505.41 1056 2500.02 1056 2495.94 1054.45 2493.16 1051.34Z" fill="#656C73" fill-rule="evenodd"/><path d="M2543.85 1071.16C2540.46 1068.63 2538.15 1065.66 2536.96 1062.3L2544.04 1059.37C2544.94 1061.97 2546.54 1064.09 2548.83 1065.72 2551.13 1067.35 2553.88 1068.15 2557.04 1068.15 2561.75 1068.15 2565.4 1066.79 2567.94 1064.09 2570.48 1061.39 2571.75 1057.6 2571.75 1052.73L2571.75 1048.03 2571.4 1048.03C2569.96 1050.28 2567.9 1052.13 2565.21 1053.62 2562.52 1055.1 2559.48 1055.85 2556.06 1055.85 2552.29 1055.85 2548.81 1054.84 2545.58 1052.81 2542.35 1050.79 2539.79 1048.01 2537.88 1044.44 2535.96 1040.88 2535 1036.88 2535 1032.42 2535 1027.97 2535.96 1023.97 2537.88 1020.4 2539.79 1016.83 2542.35 1014.05 2545.58 1012.03 2548.81 1010.01 2552.31 1009 2556.06 1009 2559.46 1009 2562.52 1009.74 2565.21 1011.23 2567.9 1012.71 2569.96 1014.57 2571.4 1016.81L2571.75 1016.81 2571.75 1010.42 2579 1010.42 2579 1052.63C2579 1057.47 2578.04 1061.58 2576.13 1064.96 2574.21 1068.32 2571.6 1070.84 2568.29 1072.51 2564.98 1074.15 2561.23 1075 2557.04 1075 2551.65 1074.98 2547.25 1073.7 2543.85 1071.16ZM2564.46 1047C2566.67 1045.66 2568.44 1043.74 2569.79 1041.25 2571.13 1038.75 2571.81 1035.8 2571.81 1032.42 2571.81 1029.04 2571.15 1026.07 2569.79 1023.56 2568.44 1021.04 2566.67 1019.12 2564.46 1017.8 2562.25 1016.51 2559.83 1015.85 2557.21 1015.85 2554.58 1015.85 2552.17 1016.51 2549.96 1017.85 2547.75 1019.19 2545.98 1021.1 2544.63 1023.6 2543.27 1026.09 2542.6 1029.04 2542.6 1032.42 2542.6 1035.8 2543.27 1038.75 2544.63 1041.25 2545.98 1043.74 2547.75 1045.66 2549.96 1047 2552.17 1048.34 2554.58 1049 2557.21 1049 2559.83 1049 2562.25 1048.34 2564.46 1047Z" fill="#656C73" fill-rule="evenodd"/><path d="M2595.06 1054.06C2592.52 1052.77 2590.55 1050.99 2589.13 1048.72 2587.71 1046.44 2587 1043.88 2587 1041.02 2587 1036.35 2588.73 1032.69 2592.2 1030.08 2595.67 1027.47 2600.09 1026.17 2605.51 1026.17 2608.19 1026.17 2610.61 1026.46 2612.76 1027.06 2614.91 1027.66 2616.64 1028.3 2617.92 1029.02L2617.92 1026.71C2617.92 1024.58 2617.37 1022.65 2616.29 1020.98 2615.22 1019.28 2613.77 1017.98 2611.97 1017.07 2610.16 1016.16 2608.21 1015.68 2606.12 1015.68 2601.17 1015.68 2597.39 1017.73 2594.77 1021.83L2588.58 1017.65C2590.39 1014.92 2592.77 1012.81 2595.75 1011.28 2598.71 1009.77 2602.06 1009 2605.8 1009 2611.72 1009 2616.41 1010.63 2619.84 1013.9 2623.27 1017.17 2625 1021.56 2625 1027.08L2625 1054.57 2617.94 1054.57 2617.94 1048.08 2617.59 1048.08C2616.19 1050.33 2614.3 1052.21 2611.91 1053.72 2609.51 1055.23 2606.75 1056 2603.6 1056 2600.42 1055.96 2597.6 1055.32 2595.06 1054.06ZM2610.81 1047.42C2612.9 1046.17 2614.61 1044.48 2615.93 1042.35 2617.23 1040.22 2617.9 1037.9 2617.9 1035.42 2614.63 1033.29 2610.87 1032.21 2606.63 1032.21 2602.96 1032.21 2600.03 1033.06 2597.86 1034.76 2595.69 1036.45 2594.59 1038.6 2594.59 1041.21 2594.59 1043.59 2595.55 1045.53 2597.47 1047.04 2599.4 1048.55 2601.64 1049.32 2604.19 1049.32 2606.51 1049.3 2608.72 1048.66 2610.81 1047.42Z" fill="#656C73" fill-rule="evenodd"/></g></svg>