<svg width="1174" height="215" viewBox="0 0 1174 215" fill="none" xmlns="http://www.w3.org/2000/svg">
<path d="M30.9375 35.7188H56.5312V70.125C52.9062 71.3438 49.1719 72.2812 45.3281 72.9375C41.5156 73.5625 37.2188 73.875 32.4375 73.875C21.9688 73.875 13.9375 70.7969 8.34375 64.6406C2.78125 58.4844 0 49.8125 0 38.625C0 31.5 1.39062 25.2969 4.17188 20.0156C6.95312 14.7344 11 10.6562 16.3125 7.78125C21.625 4.875 28.0625 3.42188 35.625 3.42188C39.3438 3.42188 42.9375 3.79688 46.4062 4.54688C49.9062 5.29688 53.1094 6.29688 56.0156 7.54688L52.0781 16.8281C49.7344 15.7344 47.125 14.8125 44.25 14.0625C41.4062 13.3125 38.4375 12.9375 35.3438 12.9375C30.4375 12.9375 26.2031 14 22.6406 16.125C19.1094 18.25 16.3906 21.25 14.4844 25.125C12.5781 28.9688 11.625 33.5156 11.625 38.7656C11.625 43.8594 12.3906 48.3281 13.9219 52.1719C15.4531 56.0156 17.8438 59.0156 21.0938 61.1719C24.375 63.2969 28.6094 64.3594 33.7969 64.3594C36.3906 64.3594 38.5938 64.2344 40.4062 63.9844C42.2188 63.7031 43.8906 63.375 45.4219 63V45.3281H30.9375V35.7188ZM117.75 46.875C117.75 55.4688 115.547 62.125 111.141 66.8438C106.734 71.5312 100.719 73.875 93.0938 73.875C88.3438 73.875 84.1406 72.8281 80.4844 70.7344C76.8281 68.6094 73.9531 65.5469 71.8594 61.5469C69.7969 57.5156 68.7656 52.625 68.7656 46.875C68.7656 38.3125 70.9531 31.7031 75.3281 27.0469C79.7344 22.3906 85.7656 20.0625 93.4219 20.0625C98.2031 20.0625 102.422 21.125 106.078 23.25C109.734 25.3438 112.594 28.3906 114.656 32.3906C116.719 36.3594 117.75 41.1875 117.75 46.875ZM80.1094 46.875C80.1094 52.5938 81.1406 57.0312 83.2031 60.1875C85.2969 63.3125 88.6562 64.875 93.2812 64.875C97.8438 64.875 101.172 63.2969 103.266 60.1406C105.359 56.9844 106.406 52.5625 106.406 46.875C106.406 41.2188 105.359 36.8438 103.266 33.75C101.203 30.6562 97.8594 29.1094 93.2344 29.1094C88.6406 29.1094 85.2969 30.6562 83.2031 33.75C81.1406 36.8125 80.1094 41.1875 80.1094 46.875ZM176.344 46.875C176.344 55.4688 174.141 62.125 169.734 66.8438C165.328 71.5312 159.312 73.875 151.688 73.875C146.938 73.875 142.734 72.8281 139.078 70.7344C135.422 68.6094 132.547 65.5469 130.453 61.5469C128.391 57.5156 127.359 52.625 127.359 46.875C127.359 38.3125 129.547 31.7031 133.922 27.0469C138.328 22.3906 144.359 20.0625 152.016 20.0625C156.797 20.0625 161.016 21.125 164.672 23.25C168.328 25.3438 171.188 28.3906 173.25 32.3906C175.312 36.3594 176.344 41.1875 176.344 46.875ZM138.703 46.875C138.703 52.5938 139.734 57.0312 141.797 60.1875C143.891 63.3125 147.25 64.875 151.875 64.875C156.438 64.875 159.766 63.2969 161.859 60.1406C163.953 56.9844 165 52.5625 165 46.875C165 41.2188 163.953 36.8438 161.859 33.75C159.797 30.6562 156.453 29.1094 151.828 29.1094C147.234 29.1094 143.891 30.6562 141.797 33.75C139.734 36.8125 138.703 41.1875 138.703 46.875ZM203.812 96C196.781 96 191.391 94.7344 187.641 92.2031C183.891 89.6719 182.016 86.125 182.016 81.5625C182.016 78.375 183.016 75.6719 185.016 73.4531C187.016 71.2656 189.875 69.75 193.594 68.9062C192.188 68.3125 190.969 67.3438 189.938 66C188.938 64.6562 188.438 63.1719 188.438 61.5469C188.438 59.6406 188.984 58 190.078 56.625C191.172 55.25 192.812 53.9062 195 52.5938C192.25 51.4688 190.062 49.5938 188.438 46.9688C186.812 44.3438 186 41.2656 186 37.7344C186 32.1094 187.766 27.75 191.297 24.6562C194.859 21.5625 199.922 20.0156 206.484 20.0156C207.891 20.0156 209.438 20.1406 211.125 20.3906C212.844 20.6094 214.078 20.8125 214.828 21H232.781V27.1406L223.969 28.7812C224.812 29.9688 225.484 31.3281 225.984 32.8594C226.484 34.3594 226.734 36 226.734 37.7812C226.734 43.1562 224.875 47.3906 221.156 50.4844C217.469 53.5469 212.375 55.0781 205.875 55.0781C204.344 55.0469 202.828 54.9219 201.328 54.7031C199.016 56.1406 197.859 57.8281 197.859 59.7656C197.859 62.1406 200.469 63.3281 205.688 63.3281H214.641C220.297 63.3281 224.625 64.5312 227.625 66.9375C230.656 69.3438 232.172 72.875 232.172 77.5312C232.172 83.4375 229.734 87.9844 224.859 91.1719C219.984 94.3906 212.969 96 203.812 96ZM206.391 47.8594C209.609 47.8594 212 46.9844 213.562 45.2344C215.125 43.4844 215.906 40.9844 215.906 37.7344C215.906 30.7344 212.719 27.2344 206.344 27.2344C200.031 27.2344 196.875 30.7656 196.875 37.8281C196.875 41.0156 197.672 43.4844 199.266 45.2344C200.891 46.9844 203.266 47.8594 206.391 47.8594ZM204.234 88.2656C209.984 88.2656 214.359 87.4375 217.359 85.7812C220.391 84.125 221.906 81.8594 221.906 78.9844C221.906 76.4531 220.953 74.7656 219.047 73.9219C217.141 73.1094 214.312 72.7031 210.562 72.7031H202.406C199.344 72.7031 196.859 73.4062 194.953 74.8125C193.047 76.25 192.094 78.2656 192.094 80.8594C192.094 83.2344 193.141 85.0625 195.234 86.3438C197.359 87.625 200.359 88.2656 204.234 88.2656ZM253.312 72.9375H242.25V0H253.312V72.9375ZM289.734 20.0625C296.641 20.0625 302.062 22.1719 306 26.3906C309.969 30.5781 311.953 36.3125 311.953 43.5938V49.5H277.312C277.438 54.5312 278.781 58.4062 281.344 61.125C283.938 63.8438 287.562 65.2031 292.219 65.2031C295.5 65.2031 298.469 64.8906 301.125 64.2656C303.781 63.6406 306.516 62.6875 309.328 61.4062V70.3594C306.703 71.5781 304.047 72.4688 301.359 73.0312C298.703 73.5938 295.5 73.875 291.75 73.875C286.656 73.875 282.172 72.8906 278.297 70.9219C274.422 68.9219 271.406 65.9688 269.25 62.0625C267.094 58.125 266.016 53.2188 266.016 47.3438C266.016 38.625 268.172 31.9062 272.484 27.1875C276.828 22.4375 282.578 20.0625 289.734 20.0625ZM289.734 28.3594C286.266 28.3594 283.453 29.4844 281.297 31.7344C279.172 33.9844 277.922 37.2812 277.547 41.625H301.172C301.109 37.75 300.156 34.5781 298.312 32.1094C296.469 29.6094 293.609 28.3594 289.734 28.3594ZM406.078 38.0156C406.078 49.5781 402.859 58.2969 396.422 64.1719C390.016 70.0156 381.031 72.9375 369.469 72.9375H350.438V4.40625H371.531C378.594 4.40625 384.703 5.6875 389.859 8.25C395.047 10.7812 399.047 14.5469 401.859 19.5469C404.672 24.5156 406.078 30.6719 406.078 38.0156ZM394.359 38.3438C394.359 29.9375 392.375 23.7344 388.406 19.7344C384.469 15.7344 378.766 13.7344 371.297 13.7344H361.688V63.5156H369.656C386.125 63.5156 394.359 55.125 394.359 38.3438ZM440.391 20.0625C447.297 20.0625 452.719 22.1719 456.656 26.3906C460.625 30.5781 462.609 36.3125 462.609 43.5938V49.5H427.969C428.094 54.5312 429.438 58.4062 432 61.125C434.594 63.8438 438.219 65.2031 442.875 65.2031C446.156 65.2031 449.125 64.8906 451.781 64.2656C454.438 63.6406 457.172 62.6875 459.984 61.4062V70.3594C457.359 71.5781 454.703 72.4688 452.016 73.0312C449.359 73.5938 446.156 73.875 442.406 73.875C437.312 73.875 432.828 72.8906 428.953 70.9219C425.078 68.9219 422.062 65.9688 419.906 62.0625C417.75 58.125 416.672 53.2188 416.672 47.3438C416.672 38.625 418.828 31.9062 423.141 27.1875C427.484 22.4375 433.234 20.0625 440.391 20.0625ZM440.391 28.3594C436.922 28.3594 434.109 29.4844 431.953 31.7344C429.828 33.9844 428.578 37.2812 428.203 41.625H451.828C451.766 37.75 450.812 34.5781 448.969 32.1094C447.125 29.6094 444.266 28.3594 440.391 28.3594ZM486.891 72.9375L467.156 21.0469H478.828L489.516 51.5156C490.172 53.4531 490.781 55.5469 491.344 57.7969C491.938 60.0469 492.344 61.9375 492.562 63.4688H492.938C493.156 61.875 493.578 59.9688 494.203 57.75C494.828 55.5 495.469 53.4219 496.125 51.5156L506.812 21.0469H518.438L498.703 72.9375H486.891ZM546.984 20.0625C553.891 20.0625 559.312 22.1719 563.25 26.3906C567.219 30.5781 569.203 36.3125 569.203 43.5938V49.5H534.562C534.688 54.5312 536.031 58.4062 538.594 61.125C541.188 63.8438 544.812 65.2031 549.469 65.2031C552.75 65.2031 555.719 64.8906 558.375 64.2656C561.031 63.6406 563.766 62.6875 566.578 61.4062V70.3594C563.953 71.5781 561.297 72.4688 558.609 73.0312C555.953 73.5938 552.75 73.875 549 73.875C543.906 73.875 539.422 72.8906 535.547 70.9219C531.672 68.9219 528.656 65.9688 526.5 62.0625C524.344 58.125 523.266 53.2188 523.266 47.3438C523.266 38.625 525.422 31.9062 529.734 27.1875C534.078 22.4375 539.828 20.0625 546.984 20.0625ZM546.984 28.3594C543.516 28.3594 540.703 29.4844 538.547 31.7344C536.422 33.9844 535.172 37.2812 534.797 41.625H558.422C558.359 37.75 557.406 34.5781 555.562 32.1094C553.719 29.6094 550.859 28.3594 546.984 28.3594ZM592.688 72.9375H581.625V0H592.688V72.9375ZM654.375 46.875C654.375 55.4688 652.172 62.125 647.766 66.8438C643.359 71.5312 637.344 73.875 629.719 73.875C624.969 73.875 620.766 72.8281 617.109 70.7344C613.453 68.6094 610.578 65.5469 608.484 61.5469C606.422 57.5156 605.391 52.625 605.391 46.875C605.391 38.3125 607.578 31.7031 611.953 27.0469C616.359 22.3906 622.391 20.0625 630.047 20.0625C634.828 20.0625 639.047 21.125 642.703 23.25C646.359 25.3438 649.219 28.3906 651.281 32.3906C653.344 36.3594 654.375 41.1875 654.375 46.875ZM616.734 46.875C616.734 52.5938 617.766 57.0312 619.828 60.1875C621.922 63.3125 625.281 64.875 629.906 64.875C634.469 64.875 637.797 63.2969 639.891 60.1406C641.984 56.9844 643.031 52.5625 643.031 46.875C643.031 41.2188 641.984 36.8438 639.891 33.75C637.828 30.6562 634.484 29.1094 629.859 29.1094C625.266 29.1094 621.922 30.6562 619.828 33.75C617.766 36.8125 616.734 41.1875 616.734 46.875ZM693.656 20.0625C699.812 20.0625 704.75 22.3125 708.469 26.8125C712.219 31.3125 714.094 38 714.094 46.875C714.094 55.7188 712.188 62.4375 708.375 67.0312C704.562 71.5938 699.562 73.875 693.375 73.875C689.438 73.875 686.25 73.1406 683.812 71.6719C681.406 70.2031 679.5 68.4844 678.094 66.5156H677.438C677.594 67.7656 677.734 69.1562 677.859 70.6875C678.016 72.1875 678.094 73.5625 678.094 74.8125V95.9531H667.031V21.0469H676.031L677.578 28.2188H678.094C679.5 26 681.438 24.0938 683.906 22.5C686.375 20.875 689.625 20.0625 693.656 20.0625ZM690.703 29.0625C686.141 29.0625 682.906 30.4219 681 33.1406C679.125 35.8281 678.156 39.8906 678.094 45.3281V46.875C678.094 52.6875 679.016 57.1406 680.859 60.2344C682.703 63.2969 686.031 64.8281 690.844 64.8281C694.844 64.8281 697.828 63.2031 699.797 59.9531C701.797 56.7031 702.797 52.2969 702.797 46.7344C702.797 41.1406 701.797 36.7969 699.797 33.7031C697.828 30.6094 694.797 29.0625 690.703 29.0625ZM747.516 20.0625C754.422 20.0625 759.844 22.1719 763.781 26.3906C767.75 30.5781 769.734 36.3125 769.734 43.5938V49.5H735.094C735.219 54.5312 736.562 58.4062 739.125 61.125C741.719 63.8438 745.344 65.2031 750 65.2031C753.281 65.2031 756.25 64.8906 758.906 64.2656C761.562 63.6406 764.297 62.6875 767.109 61.4062V70.3594C764.484 71.5781 761.828 72.4688 759.141 73.0312C756.484 73.5938 753.281 73.875 749.531 73.875C744.438 73.875 739.953 72.8906 736.078 70.9219C732.203 68.9219 729.188 65.9688 727.031 62.0625C724.875 58.125 723.797 53.2188 723.797 47.3438C723.797 38.625 725.953 31.9062 730.266 27.1875C734.609 22.4375 740.359 20.0625 747.516 20.0625ZM747.516 28.3594C744.047 28.3594 741.234 29.4844 739.078 31.7344C736.953 33.9844 735.703 37.2812 735.328 41.625H758.953C758.891 37.75 757.938 34.5781 756.094 32.1094C754.25 29.6094 751.391 28.3594 747.516 28.3594ZM808.453 20.0625C810.453 20.0625 812.297 20.2344 813.984 20.5781L812.953 30.8906C812.297 30.7344 811.484 30.6094 810.516 30.5156C809.578 30.3906 808.734 30.3281 807.984 30.3281C805.359 30.3281 802.922 30.9062 800.672 32.0625C798.422 33.2188 796.609 34.9531 795.234 37.2656C793.891 39.5469 793.219 42.3906 793.219 45.7969V72.9375H782.156V21.0469H790.781L792.281 30.1875H792.797C794.328 27.4062 796.422 25.0312 799.078 23.0625C801.734 21.0625 804.859 20.0625 808.453 20.0625ZM877.312 35.7188H902.906V70.125C899.281 71.3438 895.547 72.2812 891.703 72.9375C887.891 73.5625 883.594 73.875 878.812 73.875C868.344 73.875 860.312 70.7969 854.719 64.6406C849.156 58.4844 846.375 49.8125 846.375 38.625C846.375 31.5 847.766 25.2969 850.547 20.0156C853.328 14.7344 857.375 10.6562 862.688 7.78125C868 4.875 874.438 3.42188 882 3.42188C885.719 3.42188 889.312 3.79688 892.781 4.54688C896.281 5.29688 899.484 6.29688 902.391 7.54688L898.453 16.8281C896.109 15.7344 893.5 14.8125 890.625 14.0625C887.781 13.3125 884.812 12.9375 881.719 12.9375C876.812 12.9375 872.578 14 869.016 16.125C865.484 18.25 862.766 21.25 860.859 25.125C858.953 28.9688 858 33.5156 858 38.7656C858 43.8594 858.766 48.3281 860.297 52.1719C861.828 56.0156 864.219 59.0156 867.469 61.1719C870.75 63.2969 874.984 64.3594 880.172 64.3594C882.766 64.3594 884.969 64.2344 886.781 63.9844C888.594 63.7031 890.266 63.375 891.797 63V45.3281H877.312V35.7188ZM944.484 20.0625C946.484 20.0625 948.328 20.2344 950.016 20.5781L948.984 30.8906C948.328 30.7344 947.516 30.6094 946.547 30.5156C945.609 30.3906 944.766 30.3281 944.016 30.3281C941.391 30.3281 938.953 30.9062 936.703 32.0625C934.453 33.2188 932.641 34.9531 931.266 37.2656C929.922 39.5469 929.25 42.3906 929.25 45.7969V72.9375H918.188V21.0469H926.812L928.312 30.1875H928.828C930.359 27.4062 932.453 25.0312 935.109 23.0625C937.766 21.0625 940.891 20.0625 944.484 20.0625ZM1005.56 46.875C1005.56 55.4688 1003.36 62.125 998.953 66.8438C994.547 71.5312 988.531 73.875 980.906 73.875C976.156 73.875 971.953 72.8281 968.297 70.7344C964.641 68.6094 961.766 65.5469 959.672 61.5469C957.609 57.5156 956.578 52.625 956.578 46.875C956.578 38.3125 958.766 31.7031 963.141 27.0469C967.547 22.3906 973.578 20.0625 981.234 20.0625C986.016 20.0625 990.234 21.125 993.891 23.25C997.547 25.3438 1000.41 28.3906 1002.47 32.3906C1004.53 36.3594 1005.56 41.1875 1005.56 46.875ZM967.922 46.875C967.922 52.5938 968.953 57.0312 971.016 60.1875C973.109 63.3125 976.469 64.875 981.094 64.875C985.656 64.875 988.984 63.2969 991.078 60.1406C993.172 56.9844 994.219 52.5625 994.219 46.875C994.219 41.2188 993.172 36.8438 991.078 33.75C989.016 30.6562 985.672 29.1094 981.047 29.1094C976.453 29.1094 973.109 30.6562 971.016 33.75C968.953 36.8125 967.922 41.1875 967.922 46.875ZM1063.45 21.0469V72.9375H1054.78L1053.28 65.9531H1052.67C1051.05 68.6406 1048.77 70.6406 1045.83 71.9531C1042.89 73.2344 1039.73 73.875 1036.36 73.875C1030.48 73.875 1025.92 72.375 1022.67 69.375C1019.42 66.375 1017.8 61.5625 1017.8 54.9375V21.0469H1028.86V52.875C1028.86 60.9062 1032.23 64.9219 1038.98 64.9219C1043.98 64.9219 1047.47 63.375 1049.44 60.2812C1051.41 57.1875 1052.39 52.7188 1052.39 46.875V21.0469H1063.45ZM1105.88 20.0625C1112.03 20.0625 1116.97 22.3125 1120.69 26.8125C1124.44 31.3125 1126.31 38 1126.31 46.875C1126.31 55.7188 1124.41 62.4375 1120.59 67.0312C1116.78 71.5938 1111.78 73.875 1105.59 73.875C1101.66 73.875 1098.47 73.1406 1096.03 71.6719C1093.62 70.2031 1091.72 68.4844 1090.31 66.5156H1089.66C1089.81 67.7656 1089.95 69.1562 1090.08 70.6875C1090.23 72.1875 1090.31 73.5625 1090.31 74.8125V95.9531H1079.25V21.0469H1088.25L1089.8 28.2188H1090.31C1091.72 26 1093.66 24.0938 1096.12 22.5C1098.59 20.875 1101.84 20.0625 1105.88 20.0625ZM1102.92 29.0625C1098.36 29.0625 1095.12 30.4219 1093.22 33.1406C1091.34 35.8281 1090.38 39.8906 1090.31 45.3281V46.875C1090.31 52.6875 1091.23 57.1406 1093.08 60.2344C1094.92 63.2969 1098.25 64.8281 1103.06 64.8281C1107.06 64.8281 1110.05 63.2031 1112.02 59.9531C1114.02 56.7031 1115.02 52.2969 1115.02 46.7344C1115.02 41.1406 1114.02 36.7969 1112.02 33.7031C1110.05 30.6094 1107.02 29.0625 1102.92 29.0625ZM1173.94 58.125C1173.94 63.25 1172.08 67.1562 1168.36 69.8438C1164.67 72.5312 1159.41 73.875 1152.56 73.875C1148.94 73.875 1145.81 73.6094 1143.19 73.0781C1140.56 72.5781 1138.11 71.7969 1135.83 70.7344V61.2188C1138.27 62.4062 1141.03 63.4219 1144.12 64.2656C1147.22 65.0781 1150.14 65.4844 1152.89 65.4844C1156.52 65.4844 1159.12 64.9219 1160.72 63.7969C1162.31 62.6406 1163.11 61.1094 1163.11 59.2031C1163.11 58.0781 1162.78 57.0781 1162.12 56.2031C1161.5 55.2969 1160.31 54.375 1158.56 53.4375C1156.84 52.4688 1154.31 51.3125 1150.97 49.9688C1147.66 48.6875 1144.88 47.3906 1142.62 46.0781C1140.38 44.7344 1138.67 43.1406 1137.52 41.2969C1136.39 39.4531 1135.83 37.0625 1135.83 34.125C1135.83 29.5312 1137.64 26.0469 1141.27 23.6719C1144.92 21.2656 1149.75 20.0625 1155.75 20.0625C1158.94 20.0625 1161.94 20.3906 1164.75 21.0469C1167.59 21.6719 1170.38 22.5938 1173.09 23.8125L1169.62 32.1094C1167.25 31.1094 1164.89 30.2656 1162.55 29.5781C1160.2 28.8906 1157.81 28.5469 1155.38 28.5469C1149.56 28.5469 1146.66 30.2344 1146.66 33.6094C1146.66 34.8281 1147.02 35.8594 1147.73 36.7031C1148.45 37.5469 1149.69 38.4062 1151.44 39.2812C1153.22 40.125 1155.69 41.1562 1158.84 42.375C1161.94 43.5625 1164.61 44.8125 1166.86 46.125C1169.11 47.4375 1170.84 49.0312 1172.06 50.9062C1173.31 52.7812 1173.94 55.1875 1173.94 58.125ZM239.672 168.672V190.844C239.672 194.766 238.484 197.844 236.109 200.078C233.75 202.297 230.516 203.406 226.406 203.406C222.297 203.406 219.102 202.281 216.82 200.031C214.57 197.781 213.445 194.688 213.445 190.75V168.672H217.43V191.031C217.43 193.906 218.211 196.109 219.773 197.641C221.352 199.156 223.617 199.914 226.57 199.914C229.523 199.914 231.781 199.141 233.344 197.594C234.906 196.047 235.688 193.844 235.688 190.984V168.672H239.672ZM260.32 176.781C263.445 176.781 265.781 177.539 267.328 179.055C268.875 180.57 269.648 182.945 269.648 186.18V202.938H265.758V186.32C265.758 184.211 265.273 182.648 264.305 181.633C263.352 180.617 261.867 180.109 259.852 180.109C257.148 180.109 255.172 180.836 253.922 182.289C252.688 183.742 252.07 186.133 252.07 189.461V202.938H248.18V177.25H251.344L251.977 180.766H252.164C252.961 179.5 254.07 178.523 255.492 177.836C256.93 177.133 258.539 176.781 260.32 176.781ZM277.336 170.289C277.336 169.43 277.547 168.789 277.969 168.367C278.391 167.93 278.938 167.711 279.609 167.711C280.281 167.711 280.836 167.93 281.273 168.367C281.711 168.805 281.93 169.445 281.93 170.289C281.93 171.133 281.711 171.781 281.273 172.234C280.836 172.672 280.281 172.891 279.609 172.891C278.938 172.891 278.391 172.672 277.969 172.234C277.547 171.781 277.336 171.133 277.336 170.289ZM281.555 202.938H277.664V177.25H281.555V202.938ZM299.977 202.938H295.43L285.68 177.25H289.852L295.383 192.484C296.664 196.141 297.398 198.453 297.586 199.422H297.773C297.93 198.609 298.453 196.945 299.344 194.43C300.234 191.898 302.305 186.172 305.555 177.25H309.727L299.977 202.938ZM324.703 203.406C320.906 203.406 317.906 202.25 315.703 199.938C313.516 197.609 312.422 194.383 312.422 190.258C312.422 186.133 313.438 182.859 315.469 180.438C317.516 178 320.203 176.781 323.531 176.781C326.875 176.781 329.477 177.852 331.336 179.992C333.211 182.07 334.148 184.852 334.148 188.336V190.797H316.453C316.531 193.797 317.289 196.086 318.727 197.664C320.164 199.227 322.234 200.008 324.938 200.008C327.641 200.008 330.336 199.43 333.023 198.273V201.742C331.664 202.336 330.359 202.758 329.109 203.008C327.875 203.273 326.406 203.406 324.703 203.406ZM329.977 187.633C329.977 185.195 329.43 183.328 328.336 182.031C327.242 180.719 325.672 180.062 323.625 180.062C321.594 180.062 319.961 180.727 318.727 182.055C317.492 183.383 316.766 185.242 316.547 187.633H329.977ZM352.523 176.781C353.648 176.781 354.672 176.875 355.594 177.062L355.055 180.672C353.992 180.438 353.055 180.32 352.242 180.32C350.148 180.32 348.367 181.164 346.898 182.852C345.43 184.523 344.695 186.625 344.695 189.156V202.938H340.805V177.25H344.016L344.461 182.008H344.648C345.602 180.32 346.75 179.031 348.094 178.141C349.453 177.234 350.93 176.781 352.523 176.781ZM366.891 200.195C371.109 200.195 373.219 198.883 373.219 196.258C373.219 195.258 372.781 194.406 371.906 193.703C371.047 192.984 369.359 192.141 366.844 191.172C364.438 190.281 362.727 189.5 361.711 188.828C360.711 188.156 359.969 187.406 359.484 186.578C359 185.75 358.758 184.742 358.758 183.555C358.758 181.477 359.609 179.828 361.312 178.609C363.016 177.391 365.297 176.781 368.156 176.781C371.016 176.781 373.773 177.344 376.43 178.469L375.047 181.633C372.484 180.586 370.219 180.062 368.25 180.062C366.297 180.062 364.844 180.344 363.891 180.906C362.938 181.469 362.461 182.266 362.461 183.297C362.461 183.984 362.633 184.57 362.977 185.055C363.32 185.539 363.883 186 364.664 186.438C365.445 186.875 366.953 187.508 369.188 188.336C372.234 189.445 374.289 190.562 375.352 191.688C376.43 192.812 376.969 194.227 376.969 195.93C376.969 198.32 376.07 200.164 374.273 201.461C372.492 202.758 369.945 203.406 366.633 203.406C363.336 203.406 360.734 202.867 358.828 201.789V198.18C361.484 199.523 364.172 200.195 366.891 200.195ZM382.945 170.289C382.945 169.43 383.156 168.789 383.578 168.367C384 167.93 384.547 167.711 385.219 167.711C385.891 167.711 386.445 167.93 386.883 168.367C387.32 168.805 387.539 169.445 387.539 170.289C387.539 171.133 387.32 171.781 386.883 172.234C386.445 172.672 385.891 172.891 385.219 172.891C384.547 172.891 384 172.672 383.578 172.234C383.156 171.781 382.945 171.133 382.945 170.289ZM387.164 202.938H383.273V177.25H387.164V202.938ZM399.586 177.25H407.039V180.273H399.586V195.391C399.586 196.922 399.945 198.109 400.664 198.953C401.398 199.781 402.398 200.195 403.664 200.195C404.93 200.195 406.117 200.039 407.227 199.727V202.727C406.852 202.914 406.242 203.07 405.398 203.195C404.555 203.336 403.805 203.406 403.148 203.406C398.18 203.406 395.695 200.789 395.695 195.555V180.273H392.016V178.398L395.695 176.781L397.336 171.297H399.586V177.25ZM412.148 214.469C410.992 214.469 409.82 214.336 408.633 214.07V210.953C409.508 211.141 410.469 211.234 411.516 211.234C414.188 211.234 416.094 209.734 417.234 206.734L418.664 203.078L408.305 177.25H412.477L418.102 191.898C419.305 195.148 420.07 197.562 420.398 199.141H420.586C420.805 198.344 421.195 197.094 421.758 195.391C422.32 193.672 424.477 187.625 428.227 177.25H432.398L421.359 206.5C420.234 209.422 418.953 211.469 417.516 212.641C416.062 213.859 414.273 214.469 412.148 214.469ZM447.586 190.07C447.586 185.883 448.625 182.625 450.703 180.297C452.797 177.953 455.672 176.781 459.328 176.781C463 176.781 465.883 177.977 467.977 180.367C470.117 182.742 471.188 186 471.188 190.141C471.188 194.281 470.133 197.531 468.023 199.891C465.914 202.234 463 203.406 459.281 203.406C459.219 203.406 459.156 203.406 459.094 203.406C455.703 203.406 452.938 202.203 450.797 199.797C448.656 197.391 447.586 194.258 447.586 190.398C447.586 190.289 447.586 190.18 447.586 190.07ZM459.328 180.109C454.188 180.109 451.617 183.43 451.617 190.07C451.617 193.352 452.273 195.852 453.586 197.57C454.914 199.289 456.844 200.148 459.375 200.148C461.922 200.148 463.852 199.297 465.164 197.594C466.492 195.875 467.156 193.375 467.156 190.094C467.156 186.812 466.492 184.328 465.164 182.641C463.852 180.953 461.906 180.109 459.328 180.109ZM479.203 175.68C479.203 169.367 481.961 166.211 487.477 166.211C488.805 166.211 490.398 166.484 492.258 167.031L491.25 170.148C489.781 169.664 488.5 169.422 487.406 169.422C485.938 169.422 484.852 169.914 484.148 170.898C483.445 171.883 483.094 173.445 483.094 175.586V177.25H489.633V180.273H483.094V202.938H479.203V180.273H474.609V178.516L479.203 177.109V175.68ZM528.773 172.211H517.922V202.938H513.938V172.211H503.086V168.672H528.773V172.211ZM531.914 190.07C531.914 185.883 532.953 182.625 535.031 180.297C537.125 177.953 540 176.781 543.656 176.781C547.328 176.781 550.211 177.977 552.305 180.367C554.445 182.742 555.516 186 555.516 190.141C555.516 194.281 554.461 197.531 552.352 199.891C550.242 202.234 547.328 203.406 543.609 203.406C543.547 203.406 543.484 203.406 543.422 203.406C540.031 203.406 537.266 202.203 535.125 199.797C532.984 197.391 531.914 194.258 531.914 190.398C531.914 190.289 531.914 190.18 531.914 190.07ZM543.656 180.109C538.516 180.109 535.945 183.43 535.945 190.07C535.945 193.352 536.602 195.852 537.914 197.57C539.242 199.289 541.172 200.148 543.703 200.148C546.25 200.148 548.18 199.297 549.492 197.594C550.82 195.875 551.484 193.375 551.484 190.094C551.484 186.812 550.82 184.328 549.492 182.641C548.18 180.953 546.234 180.109 543.656 180.109ZM574.102 176.781C575.227 176.781 576.25 176.875 577.172 177.062L576.633 180.672C575.57 180.438 574.633 180.32 573.82 180.32C571.727 180.32 569.945 181.164 568.477 182.852C567.008 184.523 566.273 186.625 566.273 189.156V202.938H562.383V177.25H565.594L566.039 182.008H566.227C567.18 180.32 568.328 179.031 569.672 178.141C571.031 177.234 572.508 176.781 574.102 176.781ZM580.523 190.07C580.523 185.883 581.562 182.625 583.641 180.297C585.734 177.953 588.609 176.781 592.266 176.781C595.938 176.781 598.82 177.977 600.914 180.367C603.055 182.742 604.125 186 604.125 190.141C604.125 194.281 603.07 197.531 600.961 199.891C598.852 202.234 595.938 203.406 592.219 203.406C592.156 203.406 592.094 203.406 592.031 203.406C588.641 203.406 585.875 202.203 583.734 199.797C581.594 197.391 580.523 194.258 580.523 190.398C580.523 190.289 580.523 190.18 580.523 190.07ZM592.266 180.109C587.125 180.109 584.555 183.43 584.555 190.07C584.555 193.352 585.211 195.852 586.523 197.57C587.852 199.289 589.781 200.148 592.312 200.148C594.859 200.148 596.789 199.297 598.102 197.594C599.43 195.875 600.094 193.375 600.094 190.094C600.094 186.812 599.43 184.328 598.102 182.641C596.789 180.953 594.844 180.109 592.266 180.109ZM623.133 176.781C626.258 176.781 628.594 177.539 630.141 179.055C631.688 180.57 632.461 182.945 632.461 186.18V202.938H628.57V186.32C628.57 184.211 628.086 182.648 627.117 181.633C626.164 180.617 624.68 180.109 622.664 180.109C619.961 180.109 617.984 180.836 616.734 182.289C615.5 183.742 614.883 186.133 614.883 189.461V202.938H610.992V177.25H614.156L614.789 180.766H614.977C615.773 179.5 616.883 178.523 618.305 177.836C619.742 177.133 621.352 176.781 623.133 176.781ZM644.648 177.25H652.102V180.273H644.648V195.391C644.648 196.922 645.008 198.109 645.727 198.953C646.461 199.781 647.461 200.195 648.727 200.195C649.992 200.195 651.18 200.039 652.289 199.727V202.727C651.914 202.914 651.305 203.07 650.461 203.195C649.617 203.336 648.867 203.406 648.211 203.406C643.242 203.406 640.758 200.789 640.758 195.555V180.273H637.078V178.398L640.758 176.781L642.398 171.297H644.648V177.25ZM655.992 190.07C655.992 185.883 657.031 182.625 659.109 180.297C661.203 177.953 664.078 176.781 667.734 176.781C671.406 176.781 674.289 177.977 676.383 180.367C678.523 182.742 679.594 186 679.594 190.141C679.594 194.281 678.539 197.531 676.43 199.891C674.32 202.234 671.406 203.406 667.688 203.406C667.625 203.406 667.562 203.406 667.5 203.406C664.109 203.406 661.344 202.203 659.203 199.797C657.062 197.391 655.992 194.258 655.992 190.398C655.992 190.289 655.992 190.18 655.992 190.07ZM667.734 180.109C662.594 180.109 660.023 183.43 660.023 190.07C660.023 193.352 660.68 195.852 661.992 197.57C663.32 199.289 665.25 200.148 667.781 200.148C670.328 200.148 672.258 199.297 673.57 197.594C674.898 195.875 675.562 193.375 675.562 190.094C675.562 186.812 674.898 184.328 673.57 182.641C672.258 180.953 670.312 180.109 667.734 180.109ZM733.453 202.938H729.469V180.859C729.469 178.453 729.578 175.703 729.797 172.609H729.609L717.867 202.938H714.68L703.055 172.562H702.867C703.086 175.062 703.195 177.922 703.195 181.141V202.938H699.516V168.672H705.516L716.367 196.938H716.555L727.5 168.672H733.453V202.938ZM741.961 170.289C741.961 169.43 742.172 168.789 742.594 168.367C743.016 167.93 743.562 167.711 744.234 167.711C744.906 167.711 745.461 167.93 745.898 168.367C746.336 168.805 746.555 169.445 746.555 170.289C746.555 171.133 746.336 171.781 745.898 172.234C745.461 172.672 744.906 172.891 744.234 172.891C743.562 172.891 743.016 172.672 742.594 172.234C742.172 171.781 741.961 171.133 741.961 170.289ZM746.18 202.938H742.289V177.25H746.18V202.938ZM760.922 200.195C765.141 200.195 767.25 198.883 767.25 196.258C767.25 195.258 766.812 194.406 765.938 193.703C765.078 192.984 763.391 192.141 760.875 191.172C758.469 190.281 756.758 189.5 755.742 188.828C754.742 188.156 754 187.406 753.516 186.578C753.031 185.75 752.789 184.742 752.789 183.555C752.789 181.477 753.641 179.828 755.344 178.609C757.047 177.391 759.328 176.781 762.188 176.781C765.047 176.781 767.805 177.344 770.461 178.469L769.078 181.633C766.516 180.586 764.25 180.062 762.281 180.062C760.328 180.062 758.875 180.344 757.922 180.906C756.969 181.469 756.492 182.266 756.492 183.297C756.492 183.984 756.664 184.57 757.008 185.055C757.352 185.539 757.914 186 758.695 186.438C759.477 186.875 760.984 187.508 763.219 188.336C766.266 189.445 768.32 190.562 769.383 191.688C770.461 192.812 771 194.227 771 195.93C771 198.32 770.102 200.164 768.305 201.461C766.523 202.758 763.977 203.406 760.664 203.406C757.367 203.406 754.766 202.867 752.859 201.789V198.18C755.516 199.523 758.203 200.195 760.922 200.195ZM783.797 200.195C788.016 200.195 790.125 198.883 790.125 196.258C790.125 195.258 789.688 194.406 788.812 193.703C787.953 192.984 786.266 192.141 783.75 191.172C781.344 190.281 779.633 189.5 778.617 188.828C777.617 188.156 776.875 187.406 776.391 186.578C775.906 185.75 775.664 184.742 775.664 183.555C775.664 181.477 776.516 179.828 778.219 178.609C779.922 177.391 782.203 176.781 785.062 176.781C787.922 176.781 790.68 177.344 793.336 178.469L791.953 181.633C789.391 180.586 787.125 180.062 785.156 180.062C783.203 180.062 781.75 180.344 780.797 180.906C779.844 181.469 779.367 182.266 779.367 183.297C779.367 183.984 779.539 184.57 779.883 185.055C780.227 185.539 780.789 186 781.57 186.438C782.352 186.875 783.859 187.508 786.094 188.336C789.141 189.445 791.195 190.562 792.258 191.688C793.336 192.812 793.875 194.227 793.875 195.93C793.875 198.32 792.977 200.164 791.18 201.461C789.398 202.758 786.852 203.406 783.539 203.406C780.242 203.406 777.641 202.867 775.734 201.789V198.18C778.391 199.523 781.078 200.195 783.797 200.195ZM799.852 170.289C799.852 169.43 800.062 168.789 800.484 168.367C800.906 167.93 801.453 167.711 802.125 167.711C802.797 167.711 803.352 167.93 803.789 168.367C804.227 168.805 804.445 169.445 804.445 170.289C804.445 171.133 804.227 171.781 803.789 172.234C803.352 172.672 802.797 172.891 802.125 172.891C801.453 172.891 800.906 172.672 800.484 172.234C800.062 171.781 799.852 171.133 799.852 170.289ZM804.07 202.938H800.18V177.25H804.07V202.938ZM818.812 200.195C823.031 200.195 825.141 198.883 825.141 196.258C825.141 195.258 824.703 194.406 823.828 193.703C822.969 192.984 821.281 192.141 818.766 191.172C816.359 190.281 814.648 189.5 813.633 188.828C812.633 188.156 811.891 187.406 811.406 186.578C810.922 185.75 810.68 184.742 810.68 183.555C810.68 181.477 811.531 179.828 813.234 178.609C814.938 177.391 817.219 176.781 820.078 176.781C822.938 176.781 825.695 177.344 828.352 178.469L826.969 181.633C824.406 180.586 822.141 180.062 820.172 180.062C818.219 180.062 816.766 180.344 815.812 180.906C814.859 181.469 814.383 182.266 814.383 183.297C814.383 183.984 814.555 184.57 814.898 185.055C815.242 185.539 815.805 186 816.586 186.438C817.367 186.875 818.875 187.508 821.109 188.336C824.156 189.445 826.211 190.562 827.273 191.688C828.352 192.812 828.891 194.227 828.891 195.93C828.891 198.32 827.992 200.164 826.195 201.461C824.414 202.758 821.867 203.406 818.555 203.406C815.258 203.406 812.656 202.867 810.75 201.789V198.18C813.406 199.523 816.094 200.195 818.812 200.195ZM841.688 200.195C845.906 200.195 848.016 198.883 848.016 196.258C848.016 195.258 847.578 194.406 846.703 193.703C845.844 192.984 844.156 192.141 841.641 191.172C839.234 190.281 837.523 189.5 836.508 188.828C835.508 188.156 834.766 187.406 834.281 186.578C833.797 185.75 833.555 184.742 833.555 183.555C833.555 181.477 834.406 179.828 836.109 178.609C837.812 177.391 840.094 176.781 842.953 176.781C845.812 176.781 848.57 177.344 851.227 178.469L849.844 181.633C847.281 180.586 845.016 180.062 843.047 180.062C841.094 180.062 839.641 180.344 838.688 180.906C837.734 181.469 837.258 182.266 837.258 183.297C837.258 183.984 837.43 184.57 837.773 185.055C838.117 185.539 838.68 186 839.461 186.438C840.242 186.875 841.75 187.508 843.984 188.336C847.031 189.445 849.086 190.562 850.148 191.688C851.227 192.812 851.766 194.227 851.766 195.93C851.766 198.32 850.867 200.164 849.07 201.461C847.289 202.758 844.742 203.406 841.43 203.406C838.133 203.406 835.531 202.867 833.625 201.789V198.18C836.281 199.523 838.969 200.195 841.688 200.195ZM859.031 179.031C861.719 177.562 864.609 176.828 867.703 176.828C870.797 176.828 873.07 177.516 874.523 178.891C875.992 180.25 876.727 182.422 876.727 185.406V202.938H873.867L873.094 199.281H872.906C871.625 200.891 870.344 201.984 869.062 202.562C867.797 203.125 866.211 203.406 864.305 203.406C861.758 203.406 859.758 202.75 858.305 201.438C856.852 200.109 856.125 198.242 856.125 195.836C856.125 190.664 860.281 187.945 868.594 187.68L872.953 187.539V185.945C872.953 183.914 872.516 182.43 871.641 181.492C870.781 180.539 869.328 180.062 867.281 180.062C865.234 180.062 862.883 180.711 860.227 182.008L859.031 179.031ZM860.227 195.883C860.227 197.273 860.648 198.344 861.492 199.094C862.336 199.828 863.531 200.195 865.078 200.195C867.5 200.195 869.398 199.531 870.773 198.203C872.164 196.859 872.859 195 872.859 192.625V190.305L868.969 190.469C865.875 190.578 863.641 191.062 862.266 191.922C860.906 192.766 860.227 194.086 860.227 195.883ZM906 202.938H902.789L902.227 199.492H902.016C901.219 200.758 900.117 201.727 898.711 202.398C897.305 203.07 895.688 203.406 893.859 203.406C890.688 203.406 888.336 202.664 886.805 201.18C885.273 199.68 884.508 197.305 884.508 194.055V177.25H888.445V193.914C888.445 196.023 888.922 197.594 889.875 198.625C890.844 199.641 892.336 200.148 894.352 200.148C897.039 200.148 899 199.414 900.234 197.945C901.484 196.461 902.109 194.062 902.109 190.75V177.25H906V202.938ZM921.773 198.859H926.32C929.102 198.859 931.234 199.445 932.719 200.617C934.219 201.789 934.969 203.492 934.969 205.727C934.969 208.57 933.828 210.734 931.547 212.219C929.266 213.719 925.938 214.469 921.562 214.469C918.203 214.469 915.609 213.844 913.781 212.594C911.969 211.344 911.062 209.578 911.062 207.297C911.062 205.734 911.562 204.383 912.562 203.242C913.578 202.102 914.984 201.328 916.781 200.922C916.094 200.609 915.531 200.141 915.094 199.516C914.672 198.891 914.461 198.148 914.461 197.289C914.461 196.414 914.703 195.625 915.188 194.922C915.688 194.203 916.484 193.516 917.578 192.859C916.266 192.328 915.18 191.398 914.32 190.07C913.492 188.742 913.078 187.242 913.078 185.57C913.078 182.773 913.922 180.609 915.609 179.078C917.297 177.547 919.688 176.781 922.781 176.781C924.094 176.781 925.305 176.938 926.414 177.25H935.297V179.734L930.539 180.273C931.664 181.695 932.227 183.406 932.227 185.406C932.227 187.922 931.367 189.93 929.648 191.43C927.93 192.93 925.57 193.68 922.57 193.68C921.852 193.68 921.133 193.617 920.414 193.492C918.758 194.352 917.93 195.453 917.93 196.797C917.93 197.516 918.227 198.039 918.82 198.367C919.414 198.695 920.398 198.859 921.773 198.859ZM922.617 179.641C920.773 179.641 919.359 180.133 918.375 181.117C917.406 182.102 916.922 183.523 916.922 185.383C916.922 187.227 917.422 188.617 918.422 189.555C919.438 190.477 920.859 190.938 922.688 190.938C926.484 190.938 928.383 189.094 928.383 185.406C928.383 181.562 926.461 179.641 922.617 179.641ZM925.078 202.352H920.414C918.633 202.352 917.25 202.773 916.266 203.617C915.297 204.461 914.812 205.625 914.812 207.109C914.812 210.031 917.078 211.492 921.609 211.492C924.812 211.492 927.211 211.016 928.805 210.062C930.414 209.109 931.219 207.773 931.219 206.055C931.219 204.648 930.789 203.68 929.93 203.148C929.07 202.617 927.453 202.352 925.078 202.352ZM941.531 179.031C944.219 177.562 947.109 176.828 950.203 176.828C953.297 176.828 955.57 177.516 957.023 178.891C958.492 180.25 959.227 182.422 959.227 185.406V202.938H956.367L955.594 199.281H955.406C954.125 200.891 952.844 201.984 951.562 202.562C950.297 203.125 948.711 203.406 946.805 203.406C944.258 203.406 942.258 202.75 940.805 201.438C939.352 200.109 938.625 198.242 938.625 195.836C938.625 190.664 942.781 187.945 951.094 187.68L955.453 187.539V185.945C955.453 183.914 955.016 182.43 954.141 181.492C953.281 180.539 951.828 180.062 949.781 180.062C947.734 180.062 945.383 180.711 942.727 182.008L941.531 179.031ZM942.727 195.883C942.727 197.273 943.148 198.344 943.992 199.094C944.836 199.828 946.031 200.195 947.578 200.195C950 200.195 951.898 199.531 953.273 198.203C954.664 196.859 955.359 195 955.359 192.625V190.305L951.469 190.469C948.375 190.578 946.141 191.062 944.766 191.922C943.406 192.766 942.727 194.086 942.727 195.883Z" fill="#656C73"/>
</svg>
