<svg width="2093" height="298" viewBox="0 0 2093 298" fill="none" xmlns="http://www.w3.org/2000/svg">
<path d="M51.8212 121.99C43.4459 121.99 35.734 119.959 28.6855 115.895C21.637 111.832 16.0397 106.235 11.8935 99.1033C7.74733 91.9718 5.67424 84.0941 5.67424 75.4701C5.67424 66.846 7.74733 58.9683 11.8935 51.8368C16.0397 44.7054 21.637 39.1081 28.6855 35.0448C35.734 30.9816 43.4459 28.9499 51.8212 28.9499C58.3722 28.9499 64.5085 30.1109 70.2302 32.4327C76.0349 34.7546 80.803 38.0301 84.5345 42.2592L76.947 49.8467C74.1276 46.3639 70.5205 43.7103 66.1255 41.886C61.7306 39.9788 57.0039 39.0252 51.9456 39.0252C45.6434 39.0252 39.7558 40.5592 34.2829 43.6274C28.8928 46.6127 24.5394 50.8832 21.2224 56.4391C17.9884 61.9121 16.3714 68.2557 16.3714 75.4701C16.3714 82.6844 17.9884 89.0695 21.2224 94.6254C24.5394 100.098 28.9343 104.369 34.4073 107.437C39.8802 110.422 45.7263 111.915 51.9456 111.915C57.9161 111.915 62.8915 111.003 66.8718 109.178C70.9351 107.271 74.4179 104.784 77.3202 101.715C79.4762 99.3935 81.2176 96.6156 82.5444 93.3815C83.8711 90.0646 84.7004 86.416 85.0321 82.4356H52.07V72.6092H94.8585C95.2731 74.9311 95.4804 77.0871 95.4804 79.0772C95.4804 84.5502 94.6097 89.8988 92.8684 95.1229C91.127 100.264 88.349 104.784 84.5345 108.681C76.3251 117.554 65.4207 121.99 51.8212 121.99ZM136.477 121.99C130.258 121.99 124.66 120.498 119.685 117.512C114.71 114.527 110.812 110.464 107.993 105.323C105.256 100.181 103.888 94.501 103.888 88.2817C103.888 82.0625 105.256 76.3822 107.993 71.241C110.812 66.0997 114.71 62.0364 119.685 59.0512C124.66 56.0659 130.258 54.5733 136.477 54.5733C142.696 54.5733 148.294 56.0659 153.269 59.0512C158.244 62.0364 162.1 66.0997 164.837 71.241C167.656 76.3822 169.066 82.0625 169.066 88.2817C169.066 94.501 167.656 100.181 164.837 105.323C162.1 110.464 158.244 114.527 153.269 117.512C148.294 120.498 142.696 121.99 136.477 121.99ZM136.477 112.412C140.374 112.412 143.982 111.459 147.299 109.552C150.698 107.561 153.393 104.742 155.384 101.093C157.457 97.4448 158.493 93.1742 158.493 88.2817C158.493 83.3893 157.457 79.1187 155.384 75.4701C153.393 71.8214 150.698 69.0435 147.299 67.1362C143.982 65.1461 140.374 64.151 136.477 64.151C132.58 64.151 128.931 65.1461 125.531 67.1362C122.131 69.0435 119.395 71.8214 117.322 75.4701C115.332 79.1187 114.336 83.3893 114.336 88.2817C114.336 93.1742 115.332 97.4448 117.322 101.093C119.395 104.742 122.131 107.561 125.531 109.552C128.931 111.459 132.58 112.412 136.477 112.412ZM209.33 121.99C203.111 121.99 197.513 120.498 192.538 117.512C187.563 114.527 183.665 110.464 180.846 105.323C178.109 100.181 176.741 94.501 176.741 88.2817C176.741 82.0625 178.109 76.3822 180.846 71.241C183.665 66.0997 187.563 62.0364 192.538 59.0512C197.513 56.0659 203.111 54.5733 209.33 54.5733C215.549 54.5733 221.147 56.0659 226.122 59.0512C231.097 62.0364 234.953 66.0997 237.69 71.241C240.509 76.3822 241.919 82.0625 241.919 88.2817C241.919 94.501 240.509 100.181 237.69 105.323C234.953 110.464 231.097 114.527 226.122 117.512C221.147 120.498 215.549 121.99 209.33 121.99ZM209.33 112.412C213.227 112.412 216.835 111.459 220.151 109.552C223.551 107.561 226.246 104.742 228.237 101.093C230.31 97.4448 231.346 93.1742 231.346 88.2817C231.346 83.3893 230.31 79.1187 228.237 75.4701C226.246 71.8214 223.551 69.0435 220.151 67.1362C216.835 65.1461 213.227 64.151 209.33 64.151C205.433 64.151 201.784 65.1461 198.384 67.1362C194.984 69.0435 192.248 71.8214 190.175 75.4701C188.184 79.1187 187.189 83.3893 187.189 88.2817C187.189 93.1742 188.184 97.4448 190.175 101.093C192.248 104.742 194.984 107.561 198.384 109.552C201.784 111.459 205.433 112.412 209.33 112.412ZM280.815 148.857C273.351 148.857 267.174 147.116 262.281 143.633C257.472 140.15 254.238 135.963 252.579 131.07L262.157 126.966C263.566 130.614 265.888 133.558 269.122 135.797C272.439 138.119 276.337 139.28 280.815 139.28C287.366 139.28 292.424 137.372 295.99 133.558C299.638 129.744 301.463 124.353 301.463 117.388V110.298H300.965C298.892 113.532 295.948 116.186 292.134 118.259C288.402 120.249 284.131 121.244 279.322 121.244C273.849 121.244 268.832 119.834 264.271 117.015C259.793 114.195 256.228 110.256 253.574 105.198C250.921 100.14 249.594 94.3766 249.594 87.9086C249.594 81.5235 250.921 75.8017 253.574 70.7434C256.228 65.6022 259.793 61.6218 264.271 58.8024C268.832 55.983 273.849 54.5733 279.322 54.5733C284.131 54.5733 288.402 55.6099 292.134 57.683C295.948 59.6731 298.892 62.3267 300.965 65.6436H301.463V56.5635H311.538V117.512C311.538 127.712 308.718 135.465 303.08 140.772C297.441 146.162 290.019 148.857 280.815 148.857ZM280.815 111.666C284.629 111.666 288.07 110.713 291.139 108.805C294.29 106.898 296.777 104.162 298.602 100.596C300.509 97.0302 301.463 92.8011 301.463 87.9086C301.463 82.9332 300.509 78.6626 298.602 75.0969C296.777 71.5312 294.29 68.8362 291.139 67.0119C288.07 65.1046 284.629 64.151 280.815 64.151C277 64.151 273.517 65.1046 270.366 67.0119C267.215 68.9191 264.686 71.6556 262.779 75.2213C260.954 78.787 260.042 83.0161 260.042 87.9086C260.042 92.8011 260.954 97.0716 262.779 100.72C264.686 104.286 267.215 107.022 270.366 108.93C273.517 110.754 277 111.666 280.815 111.666ZM325.927 30.9401H336.499V120H325.927V30.9401ZM378.548 121.99C372.495 121.99 367.063 120.539 362.254 117.637C357.444 114.734 353.671 110.754 350.935 105.696C348.281 100.554 346.954 94.7912 346.954 88.4061C346.954 82.2698 348.198 76.631 350.686 71.4897C353.257 66.3485 356.864 62.2437 361.508 59.1756C366.151 56.1074 371.541 54.5733 377.678 54.5733C383.897 54.5733 389.287 55.983 393.848 58.8024C398.409 61.5389 401.891 65.3534 404.296 70.2459C406.784 75.1384 408.028 80.7357 408.028 87.0379C408.028 88.2817 407.903 89.3598 407.655 90.2719H357.527C357.776 95.0815 358.937 99.1447 361.01 102.462C363.083 105.779 365.695 108.266 368.846 109.925C372.08 111.583 375.439 112.412 378.922 112.412C387.048 112.412 393.309 108.598 397.704 100.969L406.659 105.323C403.923 110.464 400.191 114.527 395.465 117.512C390.821 120.498 385.182 121.99 378.548 121.99ZM396.833 81.5649C396.667 78.9114 395.921 76.2578 394.594 73.6043C393.267 70.9507 391.153 68.7118 388.25 66.8875C385.431 65.0631 381.865 64.151 377.553 64.151C372.578 64.151 368.349 65.768 364.866 69.002C361.466 72.1531 359.227 76.3408 358.149 81.5649H396.833ZM448.938 30.9401H475.805C484.927 30.9401 492.887 32.8474 499.687 36.6618C506.487 40.3934 511.711 45.6176 515.36 52.3344C519.008 59.0512 520.833 66.7631 520.833 75.4701C520.833 84.177 519.008 91.8889 515.36 98.6057C511.711 105.323 506.487 110.588 499.687 114.403C492.887 118.134 484.927 120 475.805 120H448.938V30.9401ZM475.805 109.925C486.336 109.925 494.67 106.898 500.807 100.845C507.026 94.7912 510.135 86.333 510.135 75.4701C510.135 64.6071 507.026 56.1489 500.807 50.0954C494.67 44.042 486.336 41.0153 475.805 41.0153H459.386V109.925H475.805ZM559.451 121.99C553.398 121.99 547.966 120.539 543.157 117.637C538.347 114.734 534.574 110.754 531.838 105.696C529.184 100.554 527.857 94.7912 527.857 88.4061C527.857 82.2698 529.101 76.631 531.589 71.4897C534.16 66.3485 537.767 62.2437 542.41 59.1756C547.054 56.1074 552.444 54.5733 558.581 54.5733C564.8 54.5733 570.19 55.983 574.751 58.8024C579.311 61.5389 582.794 65.3534 585.199 70.2459C587.687 75.1384 588.931 80.7357 588.931 87.0379C588.931 88.2817 588.806 89.3598 588.557 90.2719H538.43C538.679 95.0815 539.84 99.1447 541.913 102.462C543.986 105.779 546.598 108.266 549.749 109.925C552.983 111.583 556.342 112.412 559.824 112.412C567.951 112.412 574.212 108.598 578.607 100.969L587.562 105.323C584.826 110.464 581.094 114.527 576.368 117.512C571.724 120.498 566.085 121.99 559.451 121.99ZM577.736 81.5649C577.57 78.9114 576.824 76.2578 575.497 73.6043C574.17 70.9507 572.056 68.7118 569.153 66.8875C566.334 65.0631 562.768 64.151 558.456 64.151C553.481 64.151 549.252 65.768 545.769 69.002C542.369 72.1531 540.13 76.3408 539.052 81.5649H577.736ZM591.88 56.5635H603.199L622.852 107.561H623.101L643.002 56.5635H654.073L628.2 120H617.503L591.88 56.5635ZM687.908 121.99C681.855 121.99 676.423 120.539 671.614 117.637C666.804 114.734 663.031 110.754 660.295 105.696C657.641 100.554 656.314 94.7912 656.314 88.4061C656.314 82.2698 657.558 76.631 660.046 71.4897C662.617 66.3485 666.224 62.2437 670.868 59.1756C675.511 56.1074 680.901 54.5733 687.038 54.5733C693.257 54.5733 698.647 55.983 703.208 58.8024C707.768 61.5389 711.251 65.3534 713.656 70.2459C716.144 75.1384 717.388 80.7357 717.388 87.0379C717.388 88.2817 717.263 89.3598 717.014 90.2719H666.887C667.136 95.0815 668.297 99.1447 670.37 102.462C672.443 105.779 675.055 108.266 678.206 109.925C681.44 111.583 684.799 112.412 688.281 112.412C696.408 112.412 702.669 108.598 707.064 100.969L716.019 105.323C713.283 110.464 709.551 114.527 704.825 117.512C700.181 120.498 694.542 121.99 687.908 121.99ZM706.193 81.5649C706.027 78.9114 705.281 76.2578 703.954 73.6043C702.627 70.9507 700.513 68.7118 697.61 66.8875C694.791 65.0631 691.225 64.151 686.913 64.151C681.938 64.151 677.709 65.768 674.226 69.002C670.826 72.1531 668.587 76.3408 667.509 81.5649H706.193ZM728.517 30.9401H739.09V120H728.517V30.9401ZM782.134 121.99C775.915 121.99 770.317 120.498 765.342 117.512C760.367 114.527 756.469 110.464 753.65 105.323C750.913 100.181 749.545 94.501 749.545 88.2817C749.545 82.0625 750.913 76.3822 753.65 71.241C756.469 66.0997 760.367 62.0364 765.342 59.0512C770.317 56.0659 775.915 54.5733 782.134 54.5733C788.353 54.5733 793.951 56.0659 798.926 59.0512C803.901 62.0364 807.757 66.0997 810.494 71.241C813.313 76.3822 814.723 82.0625 814.723 88.2817C814.723 94.501 813.313 100.181 810.494 105.323C807.757 110.464 803.901 114.527 798.926 117.512C793.951 120.498 788.353 121.99 782.134 121.99ZM782.134 112.412C786.031 112.412 789.639 111.459 792.956 109.552C796.355 107.561 799.05 104.742 801.041 101.093C803.114 97.4448 804.15 93.1742 804.15 88.2817C804.15 83.3893 803.114 79.1187 801.041 75.4701C799.05 71.8214 796.355 69.0435 792.956 67.1362C789.639 65.1461 786.031 64.151 782.134 64.151C778.237 64.151 774.588 65.1461 771.188 67.1362C767.788 69.0435 765.052 71.8214 762.979 75.4701C760.989 79.1187 759.993 83.3893 759.993 88.2817C759.993 93.1742 760.989 97.4448 762.979 101.093C765.052 104.742 767.788 107.561 771.188 109.552C774.588 111.459 778.237 112.412 782.134 112.412ZM824.651 56.5635H834.727V66.0168H835.224C837.131 62.7828 839.992 60.0877 843.807 57.9317C847.704 55.6928 852.058 54.5733 856.867 54.5733C862.506 54.5733 867.647 56.0245 872.291 58.9268C876.935 61.8291 880.583 65.8509 883.237 70.9922C885.891 76.1334 887.217 81.8966 887.217 88.2817C887.217 94.7498 885.891 100.554 883.237 105.696C880.583 110.754 876.935 114.734 872.291 117.637C867.647 120.539 862.506 121.99 856.867 121.99C852.058 121.99 847.704 120.912 843.807 118.756C839.992 116.517 837.131 113.822 835.224 110.671H834.727L835.224 119.378V146.867H824.651V56.5635ZM855.623 112.412C859.272 112.412 862.713 111.417 865.947 109.427C869.181 107.437 871.752 104.618 873.659 100.969C875.649 97.2375 876.645 93.0084 876.645 88.2817C876.645 83.5551 875.649 79.3675 873.659 75.7188C871.752 71.9873 869.181 69.1264 865.947 67.1362C862.713 65.1461 859.272 64.151 855.623 64.151C851.975 64.151 848.533 65.1461 845.299 67.1362C842.065 69.1264 839.495 71.9458 837.588 75.5944C835.68 79.2431 834.727 83.4722 834.727 88.2817C834.727 93.0913 835.68 97.3204 837.588 100.969C839.495 104.618 842.065 107.437 845.299 109.427C848.533 111.417 851.975 112.412 855.623 112.412ZM926.48 121.99C920.427 121.99 914.995 120.539 910.186 117.637C905.376 114.734 901.603 110.754 898.867 105.696C896.213 100.554 894.886 94.7912 894.886 88.4061C894.886 82.2698 896.13 76.631 898.618 71.4897C901.189 66.3485 904.796 62.2437 909.439 59.1756C914.083 56.1074 919.473 54.5733 925.61 54.5733C931.829 54.5733 937.219 55.983 941.78 58.8024C946.34 61.5389 949.823 65.3534 952.228 70.2459C954.716 75.1384 955.96 80.7357 955.96 87.0379C955.96 88.2817 955.835 89.3598 955.586 90.2719H905.459C905.708 95.0815 906.869 99.1447 908.942 102.462C911.015 105.779 913.627 108.266 916.778 109.925C920.012 111.583 923.371 112.412 926.853 112.412C934.98 112.412 941.241 108.598 945.636 100.969L954.591 105.323C951.855 110.464 948.123 114.527 943.397 117.512C938.753 120.498 933.114 121.99 926.48 121.99ZM944.765 81.5649C944.599 78.9114 943.853 76.2578 942.526 73.6043C941.199 70.9507 939.085 68.7118 936.182 66.8875C933.363 65.0631 929.797 64.151 925.485 64.151C920.51 64.151 916.281 65.768 912.798 69.002C909.398 72.1531 907.159 76.3408 906.081 81.5649H944.765ZM967.089 56.5635H977.164V66.7631H977.662C978.906 63.2803 981.311 60.4194 984.876 58.1805C988.442 55.8586 992.174 54.6977 996.071 54.6977C998.973 54.6977 1001.46 55.1123 1003.53 55.9416V67.385C1000.88 66.0582 997.895 65.3948 994.578 65.3948C991.51 65.3948 988.691 66.2655 986.12 68.0069C983.549 69.7483 981.476 72.1117 979.901 75.0969C978.408 77.9992 977.662 81.1503 977.662 84.5502V120H967.089V56.5635ZM1081.63 121.99C1073.26 121.99 1065.55 119.959 1058.5 115.895C1051.45 111.832 1045.85 106.235 1041.71 99.1033C1037.56 91.9718 1035.49 84.0941 1035.49 75.4701C1035.49 66.846 1037.56 58.9683 1041.71 51.8368C1045.85 44.7054 1051.45 39.1081 1058.5 35.0448C1065.55 30.9816 1073.26 28.9499 1081.63 28.9499C1088.19 28.9499 1094.32 30.1109 1100.04 32.4327C1105.85 34.7546 1110.62 38.0301 1114.35 42.2592L1106.76 49.8467C1103.94 46.3639 1100.33 43.7103 1095.94 41.886C1091.54 39.9788 1086.82 39.0252 1081.76 39.0252C1075.46 39.0252 1069.57 40.5592 1064.1 43.6274C1058.71 46.6127 1054.35 50.8832 1051.04 56.4391C1047.8 61.9121 1046.18 68.2557 1046.18 75.4701C1046.18 82.6844 1047.8 89.0695 1051.04 94.6254C1054.35 100.098 1058.75 104.369 1064.22 107.437C1069.69 110.422 1075.54 111.915 1081.76 111.915C1087.73 111.915 1092.7 111.003 1096.69 109.178C1100.75 107.271 1104.23 104.784 1107.13 101.715C1109.29 99.3935 1111.03 96.6156 1112.36 93.3815C1113.68 90.0646 1114.51 86.416 1114.85 82.4356H1081.88V72.6092H1124.67C1125.09 74.9311 1125.29 77.0871 1125.29 79.0772C1125.29 84.5502 1124.42 89.8988 1122.68 95.1229C1120.94 100.264 1118.16 104.784 1114.35 108.681C1106.14 117.554 1095.23 121.99 1081.63 121.99ZM1135.24 56.5635H1145.31V66.7631H1145.81C1147.05 63.2803 1149.46 60.4194 1153.02 58.1805C1156.59 55.8586 1160.32 54.6977 1164.22 54.6977C1167.12 54.6977 1169.61 55.1123 1171.68 55.9416V67.385C1169.03 66.0582 1166.04 65.3948 1162.73 65.3948C1159.66 65.3948 1156.84 66.2655 1154.27 68.0069C1151.7 69.7483 1149.62 72.1117 1148.05 75.0969C1146.56 77.9992 1145.81 81.1503 1145.81 84.5502V120H1135.24V56.5635ZM1206.1 121.99C1199.88 121.99 1194.29 120.498 1189.31 117.512C1184.34 114.527 1180.44 110.464 1177.62 105.323C1174.88 100.181 1173.51 94.501 1173.51 88.2817C1173.51 82.0625 1174.88 76.3822 1177.62 71.241C1180.44 66.0997 1184.34 62.0364 1189.31 59.0512C1194.29 56.0659 1199.88 54.5733 1206.1 54.5733C1212.32 54.5733 1217.92 56.0659 1222.9 59.0512C1227.87 62.0364 1231.73 66.0997 1234.46 71.241C1237.28 76.3822 1238.69 82.0625 1238.69 88.2817C1238.69 94.501 1237.28 100.181 1234.46 105.323C1231.73 110.464 1227.87 114.527 1222.9 117.512C1217.92 120.498 1212.32 121.99 1206.1 121.99ZM1206.1 112.412C1210 112.412 1213.61 111.459 1216.92 109.552C1220.32 107.561 1223.02 104.742 1225.01 101.093C1227.08 97.4448 1228.12 93.1742 1228.12 88.2817C1228.12 83.3893 1227.08 79.1187 1225.01 75.4701C1223.02 71.8214 1220.32 69.0435 1216.92 67.1362C1213.61 65.1461 1210 64.151 1206.1 64.151C1202.21 64.151 1198.56 65.1461 1195.16 67.1362C1191.76 69.0435 1189.02 71.8214 1186.95 75.4701C1184.96 79.1187 1183.96 83.3893 1183.96 88.2817C1183.96 93.1742 1184.96 97.4448 1186.95 101.093C1189.02 104.742 1191.76 107.561 1195.16 109.552C1198.56 111.459 1202.21 112.412 1206.1 112.412ZM1272.13 121.99C1264.5 121.99 1258.65 119.751 1254.59 115.273C1250.61 110.795 1248.62 104.535 1248.62 96.4912V56.5635H1259.19V94.8742C1259.19 100.928 1260.56 105.364 1263.3 108.183C1266.03 111.003 1269.72 112.412 1274.37 112.412C1277.93 112.412 1281.09 111.459 1283.82 109.552C1286.64 107.644 1288.8 105.157 1290.29 102.089C1291.87 99.0203 1292.65 95.7863 1292.65 92.3865V56.5635H1303.23V120H1293.15V110.795H1292.65C1290.91 113.947 1288.13 116.6 1284.32 118.756C1280.5 120.912 1276.44 121.99 1272.13 121.99ZM1317.1 56.5635H1327.18V66.0168H1327.67C1329.58 62.7828 1332.44 60.0877 1336.26 57.9317C1340.15 55.6928 1344.51 54.5733 1349.32 54.5733C1354.96 54.5733 1360.1 56.0245 1364.74 58.9268C1369.38 61.8291 1373.03 65.8509 1375.69 70.9922C1378.34 76.1334 1379.67 81.8966 1379.67 88.2817C1379.67 94.7498 1378.34 100.554 1375.69 105.696C1373.03 110.754 1369.38 114.734 1364.74 117.637C1360.1 120.539 1354.96 121.99 1349.32 121.99C1344.51 121.99 1340.15 120.912 1336.26 118.756C1332.44 116.517 1329.58 113.822 1327.67 110.671H1327.18L1327.67 119.378V146.867H1317.1V56.5635ZM1348.07 112.412C1351.72 112.412 1355.16 111.417 1358.4 109.427C1361.63 107.437 1364.2 104.618 1366.11 100.969C1368.1 97.2375 1369.09 93.0084 1369.09 88.2817C1369.09 83.5551 1368.1 79.3675 1366.11 75.7188C1364.2 71.9873 1361.63 69.1264 1358.4 67.1362C1355.16 65.1461 1351.72 64.151 1348.07 64.151C1344.42 64.151 1340.98 65.1461 1337.75 67.1362C1334.51 69.1264 1331.94 71.9458 1330.04 75.5944C1328.13 79.2431 1327.18 83.4722 1327.18 88.2817C1327.18 93.0913 1328.13 97.3204 1330.04 100.969C1331.94 104.618 1334.51 107.437 1337.75 109.427C1340.98 111.417 1344.42 112.412 1348.07 112.412ZM1412.23 121.99C1405.43 121.99 1399.75 120.415 1395.19 117.264C1390.63 114.03 1387.39 109.925 1385.48 104.949L1394.94 100.72C1396.51 104.535 1398.84 107.479 1401.9 109.552C1405.05 111.625 1408.5 112.661 1412.23 112.661C1416.21 112.661 1419.61 111.873 1422.43 110.298C1425.25 108.639 1426.66 106.318 1426.66 103.332C1426.66 100.679 1425.54 98.5643 1423.3 96.9887C1421.06 95.3302 1417.53 93.9205 1412.72 92.7596L1405.01 90.7694C1399.95 89.5256 1395.81 87.411 1392.57 84.4258C1389.34 81.4405 1387.72 77.5846 1387.72 72.858C1387.72 69.2093 1388.8 66.0168 1390.96 63.2803C1393.2 60.4609 1396.14 58.3049 1399.79 56.8123C1403.44 55.3196 1407.38 54.5733 1411.61 54.5733C1417.16 54.5733 1422.1 55.7757 1426.41 58.1805C1430.8 60.5853 1433.91 63.9437 1435.74 68.2557L1426.53 72.4848C1423.71 66.846 1418.7 64.0266 1411.48 64.0266C1408 64.0266 1404.93 64.8558 1402.28 66.5143C1399.71 68.0899 1398.42 70.1215 1398.42 72.6092C1398.42 74.9311 1399.33 76.8383 1401.16 78.3309C1402.98 79.7406 1405.72 80.9015 1409.37 81.8137L1418.57 84.177C1424.79 85.7526 1429.48 88.1159 1432.63 91.267C1435.78 94.3352 1437.35 98.1082 1437.35 102.586C1437.35 106.483 1436.23 109.925 1433.99 112.91C1431.76 115.812 1428.73 118.051 1424.91 119.627C1421.1 121.202 1416.87 121.99 1412.23 121.99ZM1504.53 121.99C1498.31 121.99 1492.71 120.498 1487.74 117.512C1482.76 114.527 1478.87 110.464 1476.05 105.323C1473.31 100.181 1471.94 94.501 1471.94 88.2817C1471.94 82.0625 1473.31 76.3822 1476.05 71.241C1478.87 66.0997 1482.76 62.0364 1487.74 59.0512C1492.71 56.0659 1498.31 54.5733 1504.53 54.5733C1510.75 54.5733 1516.35 56.0659 1521.32 59.0512C1526.3 62.0364 1530.15 66.0997 1532.89 71.241C1535.71 76.3822 1537.12 82.0625 1537.12 88.2817C1537.12 94.501 1535.71 100.181 1532.89 105.323C1530.15 110.464 1526.3 114.527 1521.32 117.512C1516.35 120.498 1510.75 121.99 1504.53 121.99ZM1504.53 112.412C1508.43 112.412 1512.04 111.459 1515.35 109.552C1518.75 107.561 1521.45 104.742 1523.44 101.093C1525.51 97.4448 1526.55 93.1742 1526.55 88.2817C1526.55 83.3893 1525.51 79.1187 1523.44 75.4701C1521.45 71.8214 1518.75 69.0435 1515.35 67.1362C1512.04 65.1461 1508.43 64.151 1504.53 64.151C1500.63 64.151 1496.98 65.1461 1493.59 67.1362C1490.19 69.0435 1487.45 71.8214 1485.38 75.4701C1483.39 79.1187 1482.39 83.3893 1482.39 88.2817C1482.39 93.1742 1483.39 97.4448 1485.38 101.093C1487.45 104.742 1490.19 107.561 1493.59 109.552C1496.98 111.459 1500.63 112.412 1504.53 112.412ZM1546.94 56.5635H1557.01V65.8924H1557.51C1559.25 62.7413 1562.03 60.0877 1565.85 57.9317C1569.66 55.6928 1573.72 54.5733 1578.03 54.5733C1585.66 54.5733 1591.47 56.8123 1595.45 61.2901C1599.51 65.6851 1601.54 71.697 1601.54 79.326V120H1590.97V80.943C1590.97 75.0554 1589.56 70.7849 1586.74 68.1313C1583.92 65.4778 1580.07 64.151 1575.17 64.151C1571.77 64.151 1568.71 65.1046 1565.97 67.0119C1563.32 68.9191 1561.24 71.4483 1559.75 74.5994C1558.26 77.6675 1557.51 80.9015 1557.51 84.3014V120H1546.94V56.5635ZM1684.56 121.99C1675.94 121.99 1668.1 119.959 1661.05 115.895C1654.01 111.832 1648.45 106.276 1644.39 99.2277C1640.41 92.0962 1638.42 84.177 1638.42 75.4701C1638.42 66.7631 1640.41 58.8853 1644.39 51.8368C1648.45 44.7054 1654.01 39.1081 1661.05 35.0448C1668.1 30.9816 1675.94 28.9499 1684.56 28.9499C1691.2 28.9499 1697.25 30.2353 1702.72 32.8059C1708.28 35.2936 1713.09 38.8593 1717.15 43.503L1709.56 50.8418C1706.16 46.7785 1702.43 43.7933 1698.37 41.886C1694.39 39.9788 1689.79 39.0252 1684.56 39.0252C1678.1 39.0252 1672.17 40.5592 1666.78 43.6274C1661.39 46.6127 1657.07 50.8832 1653.84 56.4391C1650.69 61.9121 1649.11 68.2557 1649.11 75.4701C1649.11 82.6844 1650.69 89.0695 1653.84 94.6254C1657.07 100.098 1661.39 104.369 1666.78 107.437C1672.17 110.422 1678.1 111.915 1684.56 111.915C1695.34 111.915 1704.51 107.479 1712.05 98.6057L1719.76 106.069C1715.62 110.961 1710.52 114.859 1704.46 117.761C1698.41 120.58 1691.78 121.99 1684.56 121.99ZM1749.45 121.99C1744.81 121.99 1740.66 121.078 1737.01 119.254C1733.37 117.429 1730.55 114.942 1728.56 111.791C1726.57 108.557 1725.57 104.908 1725.57 100.845C1725.57 94.1279 1728.1 88.9037 1733.16 85.1721C1738.22 81.3576 1744.6 79.4504 1752.31 79.4504C1756.13 79.4504 1759.65 79.865 1762.89 80.6942C1766.2 81.5235 1768.73 82.4771 1770.47 83.5551V79.6992C1770.47 74.9725 1768.82 71.1995 1765.5 68.3801C1762.18 65.4778 1757.99 64.0266 1752.94 64.0266C1749.37 64.0266 1746.09 64.8144 1743.11 66.3899C1740.12 67.8826 1737.76 69.9971 1736.02 72.7336L1728.06 66.7631C1730.55 62.9486 1733.95 59.9634 1738.26 57.8073C1742.65 55.6513 1747.5 54.5733 1752.81 54.5733C1761.43 54.5733 1768.19 56.8537 1773.09 61.4145C1778.06 65.8924 1780.55 72.0287 1780.55 79.8235V120H1770.47V110.92H1769.98C1768.15 113.988 1765.42 116.6 1761.77 118.756C1758.12 120.912 1754.01 121.99 1749.45 121.99ZM1750.45 112.661C1754.01 112.661 1757.33 111.749 1760.4 109.925C1763.47 108.1 1765.91 105.654 1767.74 102.586C1769.56 99.5179 1770.47 96.1595 1770.47 92.5108C1768.48 91.1841 1766.04 90.1061 1763.13 89.2768C1760.23 88.4476 1757.16 88.033 1753.93 88.033C1748.13 88.033 1743.73 89.2354 1740.75 91.6401C1737.84 94.0449 1736.39 97.1546 1736.39 100.969C1736.39 104.452 1737.72 107.271 1740.37 109.427C1743.03 111.583 1746.38 112.661 1750.45 112.661ZM1794.01 56.5635H1804.09V65.8924H1804.59C1806.41 62.6584 1809.15 59.9634 1812.8 57.8073C1816.44 55.6513 1820.3 54.5733 1824.36 54.5733C1829.01 54.5733 1833.03 55.6928 1836.43 57.9317C1839.91 60.1707 1842.4 63.1559 1843.89 66.8875C1846.13 63.1559 1849.07 60.1707 1852.72 57.9317C1856.45 55.6928 1860.77 54.5733 1865.66 54.5733C1872.96 54.5733 1878.43 56.8123 1882.08 61.2901C1885.81 65.6851 1887.68 71.697 1887.68 79.326V120H1877.23V80.943C1877.23 75.0554 1876.02 70.7849 1873.62 68.1313C1871.22 65.4778 1867.65 64.151 1862.92 64.151C1859.77 64.151 1856.91 65.0631 1854.34 66.8875C1851.77 68.7118 1849.74 71.158 1848.25 74.2262C1846.84 77.2944 1846.13 80.6113 1846.13 84.177V120H1835.56V81.0674C1835.56 75.0969 1834.36 70.7849 1831.95 68.1313C1829.55 65.4778 1826.02 64.151 1821.38 64.151C1818.23 64.151 1815.37 65.1046 1812.8 67.0119C1810.22 68.8362 1808.19 71.3239 1806.7 74.475C1805.29 77.5431 1804.59 80.8601 1804.59 84.4258V120H1794.01V56.5635ZM1901.11 56.5635H1911.18V66.0168H1911.68C1913.59 62.7828 1916.45 60.0877 1920.26 57.9317C1924.16 55.6928 1928.52 54.5733 1933.32 54.5733C1938.96 54.5733 1944.1 56.0245 1948.75 58.9268C1953.39 61.8291 1957.04 65.8509 1959.69 70.9922C1962.35 76.1334 1963.67 81.8966 1963.67 88.2817C1963.67 94.7498 1962.35 100.554 1959.69 105.696C1957.04 110.754 1953.39 114.734 1948.75 117.637C1944.1 120.539 1938.96 121.99 1933.32 121.99C1928.52 121.99 1924.16 120.912 1920.26 118.756C1916.45 116.517 1913.59 113.822 1911.68 110.671H1911.18L1911.68 119.378V146.867H1901.11V56.5635ZM1932.08 112.412C1935.73 112.412 1939.17 111.417 1942.41 109.427C1945.64 107.437 1948.21 104.618 1950.12 100.969C1952.11 97.2375 1953.1 93.0084 1953.1 88.2817C1953.1 83.5551 1952.11 79.3675 1950.12 75.7188C1948.21 71.9873 1945.64 69.1264 1942.41 67.1362C1939.17 65.1461 1935.73 64.151 1932.08 64.151C1928.43 64.151 1924.99 65.1461 1921.76 67.1362C1918.52 69.1264 1915.95 71.9458 1914.05 75.5944C1912.14 79.2431 1911.18 83.4722 1911.18 88.2817C1911.18 93.0913 1912.14 97.3204 1914.05 100.969C1915.95 104.618 1918.52 107.437 1921.76 109.427C1924.99 111.417 1928.43 112.412 1932.08 112.412ZM1997.11 121.99C1989.48 121.99 1983.63 119.751 1979.57 115.273C1975.59 110.795 1973.6 104.535 1973.6 96.4912V56.5635H1984.17V94.8742C1984.17 100.928 1985.54 105.364 1988.28 108.183C1991.01 111.003 1994.7 112.412 1999.35 112.412C2002.91 112.412 2006.06 111.459 2008.8 109.552C2011.62 107.644 2013.77 105.157 2015.27 102.089C2016.84 99.0203 2017.63 95.7863 2017.63 92.3865V56.5635H2028.2V120H2018.13V110.795H2017.63C2015.89 113.947 2013.11 116.6 2009.3 118.756C2005.48 120.912 2001.42 121.99 1997.11 121.99ZM2064.11 121.99C2057.31 121.99 2051.63 120.415 2047.07 117.264C2042.51 114.03 2039.27 109.925 2037.37 104.949L2046.82 100.72C2048.39 104.535 2050.72 107.479 2053.78 109.552C2056.94 111.625 2060.38 112.661 2064.11 112.661C2068.09 112.661 2071.49 111.873 2074.31 110.298C2077.13 108.639 2078.54 106.318 2078.54 103.332C2078.54 100.679 2077.42 98.5643 2075.18 96.9887C2072.94 95.3302 2069.42 93.9205 2064.61 92.7596L2056.89 90.7694C2051.84 89.5256 2047.69 87.411 2044.46 84.4258C2041.22 81.4405 2039.6 77.5846 2039.6 72.858C2039.6 69.2093 2040.68 66.0168 2042.84 63.2803C2045.08 60.4609 2048.02 58.3049 2051.67 56.8123C2055.32 55.3196 2059.26 54.5733 2063.49 54.5733C2069.04 54.5733 2073.98 55.7757 2078.29 58.1805C2082.68 60.5853 2085.79 63.9437 2087.62 68.2557L2078.41 72.4848C2075.59 66.846 2070.58 64.0266 2063.36 64.0266C2059.88 64.0266 2056.81 64.8558 2054.16 66.5143C2051.59 68.0899 2050.3 70.1215 2050.3 72.6092C2050.3 74.9311 2051.21 76.8383 2053.04 78.3309C2054.86 79.7406 2057.6 80.9015 2061.25 81.8137L2070.45 84.177C2076.67 85.7526 2081.36 88.1159 2084.51 91.267C2087.66 94.3352 2089.23 98.1082 2089.23 102.586C2089.23 106.483 2088.11 109.925 2085.88 112.91C2083.64 115.812 2080.61 118.051 2076.8 119.627C2072.98 121.202 2068.75 121.99 2064.11 121.99Z" fill="#656C73"/>
<path d="M425.726 272.424C421.157 272.424 417.092 271.386 413.532 269.309C409.971 267.173 407.212 264.235 405.254 260.497C403.295 256.699 402.316 252.337 402.316 247.412V207.268H409.882V247.768C409.882 252.931 411.247 257.144 413.977 260.408C416.706 263.612 420.623 265.214 425.726 265.214C430.83 265.214 434.746 263.612 437.476 260.408C440.265 257.144 441.659 252.931 441.659 247.768V207.268H449.136V247.412C449.136 252.337 448.187 256.699 446.288 260.497C444.448 264.294 441.748 267.232 438.188 269.309C434.687 271.386 430.533 272.424 425.726 272.424ZM459.136 225.604H466.346V232.28H466.702C467.948 230.025 469.936 228.126 472.666 226.583C475.395 224.981 478.303 224.18 481.389 224.18C486.848 224.18 491.002 225.782 493.85 228.987C496.758 232.132 498.212 236.434 498.212 241.893V271H490.646V243.051C490.646 238.837 489.637 235.781 487.62 233.882C485.602 231.983 482.843 231.034 479.342 231.034C476.909 231.034 474.713 231.716 472.755 233.081C470.856 234.446 469.372 236.256 468.304 238.511C467.236 240.707 466.702 243.021 466.702 245.454V271H459.136V225.604ZM512.591 217.237C511.108 217.237 509.832 216.703 508.764 215.635C507.696 214.567 507.162 213.291 507.162 211.808C507.162 210.324 507.696 209.078 508.764 208.069C509.832 207.001 511.108 206.467 512.591 206.467C514.075 206.467 515.351 207.001 516.419 208.069C517.487 209.078 518.021 210.324 518.021 211.808C518.021 213.291 517.487 214.567 516.419 215.635C515.41 216.703 514.134 217.237 512.591 217.237ZM508.853 225.604H516.33V271H508.853V225.604ZM522.346 225.604H530.446L544.51 262.099H544.688L558.929 225.604H566.851L548.337 271H540.682L522.346 225.604ZM591.064 272.424C586.733 272.424 582.846 271.386 579.404 269.309C575.962 267.232 573.262 264.384 571.304 260.764C569.405 257.085 568.456 252.96 568.456 248.391C568.456 244 569.346 239.965 571.126 236.286C572.966 232.607 575.547 229.669 578.87 227.474C582.193 225.278 586.05 224.18 590.441 224.18C594.892 224.18 598.749 225.189 602.013 227.207C605.277 229.165 607.769 231.894 609.49 235.396C611.27 238.897 612.16 242.902 612.16 247.412C612.16 248.302 612.071 249.074 611.893 249.726H576.022C576.2 253.168 577.03 256.076 578.514 258.449C579.997 260.823 581.867 262.603 584.122 263.79C586.436 264.977 588.839 265.57 591.331 265.57C597.147 265.57 601.627 262.841 604.772 257.381L611.181 260.497C609.223 264.176 606.552 267.084 603.17 269.22C599.847 271.356 595.812 272.424 591.064 272.424ZM604.149 243.496C604.03 241.597 603.496 239.698 602.547 237.799C601.597 235.9 600.084 234.298 598.007 232.992C595.99 231.687 593.438 231.034 590.352 231.034C586.792 231.034 583.766 232.191 581.273 234.505C578.84 236.76 577.238 239.757 576.467 243.496H604.149ZM620.125 225.604H627.334V232.903H627.69C628.581 230.411 630.301 228.364 632.853 226.761C635.405 225.1 638.075 224.269 640.864 224.269C642.941 224.269 644.721 224.566 646.205 225.159V233.348C644.306 232.399 642.17 231.924 639.796 231.924C637.6 231.924 635.583 232.547 633.743 233.793C631.904 235.04 630.42 236.731 629.293 238.867C628.225 240.944 627.69 243.199 627.69 245.632V271H620.125V225.604ZM666.719 272.424C661.853 272.424 657.788 271.297 654.525 269.042C651.261 266.727 648.946 263.79 647.582 260.23L654.347 257.203C655.474 259.933 657.136 262.04 659.331 263.523C661.586 265.007 664.049 265.748 666.719 265.748C669.567 265.748 672 265.185 674.018 264.057C676.036 262.87 677.044 261.209 677.044 259.073C677.044 257.174 676.243 255.66 674.641 254.533C673.039 253.346 670.517 252.337 667.075 251.507L661.556 250.082C657.937 249.192 654.97 247.679 652.655 245.543C650.341 243.407 649.184 240.647 649.184 237.265C649.184 234.654 649.955 232.369 651.498 230.411C653.1 228.393 655.207 226.85 657.818 225.782C660.429 224.714 663.248 224.18 666.274 224.18C670.25 224.18 673.781 225.041 676.866 226.761C680.011 228.482 682.237 230.886 683.542 233.971L676.955 236.998C674.938 232.963 671.348 230.945 666.185 230.945C663.693 230.945 661.497 231.538 659.598 232.725C657.759 233.853 656.839 235.307 656.839 237.087C656.839 238.748 657.492 240.113 658.797 241.181C660.103 242.19 662.061 243.021 664.672 243.674L671.259 245.365C675.709 246.492 679.062 248.183 681.317 250.438C683.572 252.634 684.699 255.334 684.699 258.538C684.699 261.327 683.898 263.79 682.296 265.926C680.694 268.003 678.528 269.605 675.798 270.733C673.069 271.86 670.042 272.424 666.719 272.424ZM696.073 217.237C694.589 217.237 693.313 216.703 692.245 215.635C691.177 214.567 690.643 213.291 690.643 211.808C690.643 210.324 691.177 209.078 692.245 208.069C693.313 207.001 694.589 206.467 696.073 206.467C697.556 206.467 698.832 207.001 699.9 208.069C700.968 209.078 701.502 210.324 701.502 211.808C701.502 213.291 700.968 214.567 699.9 215.635C698.891 216.703 697.615 217.237 696.073 217.237ZM692.334 225.604H699.811V271H692.334V225.604ZM727.823 271.712C725.984 271.712 724.263 271.415 722.66 270.822C721.118 270.229 719.812 269.427 718.744 268.419C717.557 267.291 716.667 265.986 716.074 264.502C715.48 263.019 715.184 261.209 715.184 259.073V232.458H707.262V225.604H715.184V212.787H722.749V225.604H733.787V232.458H722.749V257.203C722.749 259.696 723.224 261.535 724.174 262.722C725.301 264.027 726.933 264.68 729.069 264.68C730.79 264.68 732.452 264.176 734.054 263.167V270.555C733.164 270.97 732.244 271.267 731.295 271.445C730.404 271.623 729.247 271.712 727.823 271.712ZM756.404 268.152L737.623 225.604H745.812L760.053 259.34H760.232L773.939 225.604H782.128L754.09 290.226H746.257L756.404 268.152ZM828.24 272.424C823.79 272.424 819.784 271.356 816.224 269.22C812.663 267.084 809.874 264.176 807.857 260.497C805.898 256.818 804.919 252.753 804.919 248.302C804.919 243.852 805.898 239.787 807.857 236.108C809.874 232.429 812.663 229.521 816.224 227.385C819.784 225.248 823.79 224.18 828.24 224.18C832.691 224.18 836.696 225.248 840.257 227.385C843.817 229.521 846.576 232.429 848.535 236.108C850.552 239.787 851.561 243.852 851.561 248.302C851.561 252.753 850.552 256.818 848.535 260.497C846.576 264.176 843.817 267.084 840.257 269.22C836.696 271.356 832.691 272.424 828.24 272.424ZM828.24 265.57C831.029 265.57 833.611 264.888 835.984 263.523C838.417 262.099 840.346 260.081 841.77 257.47C843.253 254.859 843.995 251.803 843.995 248.302C843.995 244.801 843.253 241.745 841.77 239.134C840.346 236.523 838.417 234.535 835.984 233.17C833.611 231.746 831.029 231.034 828.24 231.034C825.451 231.034 822.84 231.746 820.407 233.17C817.974 234.535 816.016 236.523 814.532 239.134C813.108 241.745 812.396 244.801 812.396 248.302C812.396 251.803 813.108 254.859 814.532 257.47C816.016 260.081 817.974 262.099 820.407 263.523C822.84 264.888 825.451 265.57 828.24 265.57ZM863.404 232.458H855.037V225.604H863.404V220.709C863.404 217.86 864.057 215.368 865.363 213.232C866.668 211.096 868.419 209.464 870.614 208.336C872.81 207.149 875.243 206.556 877.913 206.556C880.465 206.556 882.69 206.912 884.589 207.624V215.012C883.521 214.597 882.512 214.27 881.563 214.033C880.613 213.736 879.486 213.588 878.18 213.588C876.222 213.588 874.531 214.3 873.107 215.724C871.682 217.089 870.97 219.017 870.97 221.51V225.604H882.631V232.458H870.97V271H863.404V232.458ZM921.821 214.478H903.93V207.268H947.19V214.478H929.387V271H921.821V214.478ZM968.106 272.424C963.655 272.424 959.65 271.356 956.089 269.22C952.529 267.084 949.74 264.176 947.722 260.497C945.764 256.818 944.785 252.753 944.785 248.302C944.785 243.852 945.764 239.787 947.722 236.108C949.74 232.429 952.529 229.521 956.089 227.385C959.65 225.248 963.655 224.18 968.106 224.18C972.556 224.18 976.562 225.248 980.122 227.385C983.683 229.521 986.442 232.429 988.4 236.108C990.418 239.787 991.427 243.852 991.427 248.302C991.427 252.753 990.418 256.818 988.4 260.497C986.442 264.176 983.683 267.084 980.122 269.22C976.562 271.356 972.556 272.424 968.106 272.424ZM968.106 265.57C970.895 265.57 973.476 264.888 975.85 263.523C978.283 262.099 980.211 260.081 981.636 257.47C983.119 254.859 983.861 251.803 983.861 248.302C983.861 244.801 983.119 241.745 981.636 239.134C980.211 236.523 978.283 234.535 975.85 233.17C973.476 231.746 970.895 231.034 968.106 231.034C965.317 231.034 962.706 231.746 960.273 233.17C957.84 234.535 955.882 236.523 954.398 239.134C952.974 241.745 952.262 244.801 952.262 248.302C952.262 251.803 952.974 254.859 954.398 257.47C955.882 260.081 957.84 262.099 960.273 263.523C962.706 264.888 965.317 265.57 968.106 265.57ZM998.453 225.604H1005.66V232.903H1006.02C1006.91 230.411 1008.63 228.364 1011.18 226.761C1013.73 225.1 1016.4 224.269 1019.19 224.269C1021.27 224.269 1023.05 224.566 1024.53 225.159V233.348C1022.63 232.399 1020.5 231.924 1018.12 231.924C1015.93 231.924 1013.91 232.547 1012.07 233.793C1010.23 235.04 1008.75 236.731 1007.62 238.867C1006.55 240.944 1006.02 243.199 1006.02 245.632V271H998.453V225.604ZM1049.17 272.424C1044.71 272.424 1040.71 271.356 1037.15 269.22C1033.59 267.084 1030.8 264.176 1028.78 260.497C1026.82 256.818 1025.84 252.753 1025.84 248.302C1025.84 243.852 1026.82 239.787 1028.78 236.108C1030.8 232.429 1033.59 229.521 1037.15 227.385C1040.71 225.248 1044.71 224.18 1049.17 224.18C1053.62 224.18 1057.62 225.248 1061.18 227.385C1064.74 229.521 1067.5 232.429 1069.46 236.108C1071.48 239.787 1072.49 243.852 1072.49 248.302C1072.49 252.753 1071.48 256.818 1069.46 260.497C1067.5 264.176 1064.74 267.084 1061.18 269.22C1057.62 271.356 1053.62 272.424 1049.17 272.424ZM1049.17 265.57C1051.95 265.57 1054.54 264.888 1056.91 263.523C1059.34 262.099 1061.27 260.081 1062.69 257.47C1064.18 254.859 1064.92 251.803 1064.92 248.302C1064.92 244.801 1064.18 241.745 1062.69 239.134C1061.27 236.523 1059.34 234.535 1056.91 233.17C1054.54 231.746 1051.95 231.034 1049.17 231.034C1046.38 231.034 1043.77 231.746 1041.33 233.17C1038.9 234.535 1036.94 236.523 1035.46 239.134C1034.03 241.745 1033.32 244.801 1033.32 248.302C1033.32 251.803 1034.03 254.859 1035.46 257.47C1036.94 260.081 1038.9 262.099 1041.33 263.523C1043.77 264.888 1046.38 265.57 1049.17 265.57ZM1079.51 225.604H1086.72V232.28H1087.08C1088.32 230.025 1090.31 228.126 1093.04 226.583C1095.77 224.981 1098.68 224.18 1101.77 224.18C1107.22 224.18 1111.38 225.782 1114.23 228.987C1117.13 232.132 1118.59 236.434 1118.59 241.893V271H1111.02V243.051C1111.02 238.837 1110.01 235.781 1108 233.882C1105.98 231.983 1103.22 231.034 1099.72 231.034C1097.28 231.034 1095.09 231.716 1093.13 233.081C1091.23 234.446 1089.75 236.256 1088.68 238.511C1087.61 240.707 1087.08 243.021 1087.08 245.454V271H1079.51V225.604ZM1143.7 271.712C1141.86 271.712 1140.14 271.415 1138.54 270.822C1137 270.229 1135.69 269.427 1134.62 268.419C1133.44 267.291 1132.55 265.986 1131.95 264.502C1131.36 263.019 1131.06 261.209 1131.06 259.073V232.458H1123.14V225.604H1131.06V212.787H1138.63V225.604H1149.67V232.458H1138.63V257.203C1138.63 259.696 1139.1 261.535 1140.05 262.722C1141.18 264.027 1142.81 264.68 1144.95 264.68C1146.67 264.68 1148.33 264.176 1149.93 263.167V270.555C1149.04 270.97 1148.12 271.267 1147.17 271.445C1146.28 271.623 1145.13 271.712 1143.7 271.712ZM1176.88 272.424C1172.43 272.424 1168.43 271.356 1164.87 269.22C1161.31 267.084 1158.52 264.176 1156.5 260.497C1154.54 256.818 1153.56 252.753 1153.56 248.302C1153.56 243.852 1154.54 239.787 1156.5 236.108C1158.52 232.429 1161.31 229.521 1164.87 227.385C1168.43 225.248 1172.43 224.18 1176.88 224.18C1181.33 224.18 1185.34 225.248 1188.9 227.385C1192.46 229.521 1195.22 232.429 1197.18 236.108C1199.19 239.787 1200.2 243.852 1200.2 248.302C1200.2 252.753 1199.19 256.818 1197.18 260.497C1195.22 264.176 1192.46 267.084 1188.9 269.22C1185.34 271.356 1181.33 272.424 1176.88 272.424ZM1176.88 265.57C1179.67 265.57 1182.25 264.888 1184.63 263.523C1187.06 262.099 1188.99 260.081 1190.41 257.47C1191.9 254.859 1192.64 251.803 1192.64 248.302C1192.64 244.801 1191.9 241.745 1190.41 239.134C1188.99 236.523 1187.06 234.535 1184.63 233.17C1182.25 231.746 1179.67 231.034 1176.88 231.034C1174.09 231.034 1171.48 231.746 1169.05 233.17C1166.62 234.535 1164.66 236.523 1163.17 239.134C1161.75 241.745 1161.04 244.801 1161.04 248.302C1161.04 251.803 1161.75 254.859 1163.17 257.47C1164.66 260.081 1166.62 262.099 1169.05 263.523C1171.48 264.888 1174.09 265.57 1176.88 265.57ZM1229.41 207.268H1240.36L1260.65 259.518H1261.01L1281.3 207.268H1292.25V271H1284.77V230.5L1285.13 218.394H1284.77L1263.95 271H1257.72L1236.89 218.394H1236.53L1236.89 230.5V271H1229.41V207.268ZM1308.56 217.237C1307.08 217.237 1305.8 216.703 1304.73 215.635C1303.66 214.567 1303.13 213.291 1303.13 211.808C1303.13 210.324 1303.66 209.078 1304.73 208.069C1305.8 207.001 1307.08 206.467 1308.56 206.467C1310.04 206.467 1311.32 207.001 1312.39 208.069C1313.46 209.078 1313.99 210.324 1313.99 211.808C1313.99 213.291 1313.46 214.567 1312.39 215.635C1311.38 216.703 1310.1 217.237 1308.56 217.237ZM1304.82 225.604H1312.3V271H1304.82V225.604ZM1339.14 272.424C1334.28 272.424 1330.21 271.297 1326.95 269.042C1323.68 266.727 1321.37 263.79 1320.01 260.23L1326.77 257.203C1327.9 259.933 1329.56 262.04 1331.75 263.523C1334.01 265.007 1336.47 265.748 1339.14 265.748C1341.99 265.748 1344.42 265.185 1346.44 264.057C1348.46 262.87 1349.47 261.209 1349.47 259.073C1349.47 257.174 1348.67 255.66 1347.06 254.533C1345.46 253.346 1342.94 252.337 1339.5 251.507L1333.98 250.082C1330.36 249.192 1327.39 247.679 1325.08 245.543C1322.76 243.407 1321.61 240.647 1321.61 237.265C1321.61 234.654 1322.38 232.369 1323.92 230.411C1325.52 228.393 1327.63 226.85 1330.24 225.782C1332.85 224.714 1335.67 224.18 1338.7 224.18C1342.67 224.18 1346.2 225.041 1349.29 226.761C1352.43 228.482 1354.66 230.886 1355.97 233.971L1349.38 236.998C1347.36 232.963 1343.77 230.945 1338.61 230.945C1336.12 230.945 1333.92 231.538 1332.02 232.725C1330.18 233.853 1329.26 235.307 1329.26 237.087C1329.26 238.748 1329.92 240.113 1331.22 241.181C1332.53 242.19 1334.48 243.021 1337.1 243.674L1343.68 245.365C1348.13 246.492 1351.49 248.183 1353.74 250.438C1356 252.634 1357.12 255.334 1357.12 258.538C1357.12 261.327 1356.32 263.79 1354.72 265.926C1353.12 268.003 1350.95 269.605 1348.22 270.733C1345.49 271.86 1342.47 272.424 1339.14 272.424ZM1380.32 272.424C1375.46 272.424 1371.39 271.297 1368.13 269.042C1364.87 266.727 1362.55 263.79 1361.19 260.23L1367.95 257.203C1369.08 259.933 1370.74 262.04 1372.94 263.523C1375.19 265.007 1377.65 265.748 1380.32 265.748C1383.17 265.748 1385.61 265.185 1387.62 264.057C1389.64 262.87 1390.65 261.209 1390.65 259.073C1390.65 257.174 1389.85 255.66 1388.25 254.533C1386.64 253.346 1384.12 252.337 1380.68 251.507L1375.16 250.082C1371.54 249.192 1368.57 247.679 1366.26 245.543C1363.95 243.407 1362.79 240.647 1362.79 237.265C1362.79 234.654 1363.56 232.369 1365.1 230.411C1366.71 228.393 1368.81 226.85 1371.42 225.782C1374.03 224.714 1376.85 224.18 1379.88 224.18C1383.85 224.18 1387.39 225.041 1390.47 226.761C1393.62 228.482 1395.84 230.886 1397.15 233.971L1390.56 236.998C1388.54 232.963 1384.95 230.945 1379.79 230.945C1377.3 230.945 1375.1 231.538 1373.2 232.725C1371.36 233.853 1370.44 235.307 1370.44 237.087C1370.44 238.748 1371.1 240.113 1372.4 241.181C1373.71 242.19 1375.67 243.021 1378.28 243.674L1384.86 245.365C1389.31 246.492 1392.67 248.183 1394.92 250.438C1397.18 252.634 1398.3 255.334 1398.3 258.538C1398.3 261.327 1397.5 263.79 1395.9 265.926C1394.3 268.003 1392.13 269.605 1389.4 270.733C1386.67 271.86 1383.65 272.424 1380.32 272.424ZM1409.68 217.237C1408.19 217.237 1406.92 216.703 1405.85 215.635C1404.78 214.567 1404.25 213.291 1404.25 211.808C1404.25 210.324 1404.78 209.078 1405.85 208.069C1406.92 207.001 1408.19 206.467 1409.68 206.467C1411.16 206.467 1412.44 207.001 1413.51 208.069C1414.57 209.078 1415.11 210.324 1415.11 211.808C1415.11 213.291 1414.57 214.567 1413.51 215.635C1412.5 216.703 1411.22 217.237 1409.68 217.237ZM1405.94 225.604H1413.42V271H1405.94V225.604ZM1440.26 272.424C1435.39 272.424 1431.33 271.297 1428.07 269.042C1424.8 266.727 1422.49 263.79 1421.12 260.23L1427.89 257.203C1429.02 259.933 1430.68 262.04 1432.87 263.523C1435.13 265.007 1437.59 265.748 1440.26 265.748C1443.11 265.748 1445.54 265.185 1447.56 264.057C1449.58 262.87 1450.59 261.209 1450.59 259.073C1450.59 257.174 1449.78 255.66 1448.18 254.533C1446.58 253.346 1444.06 252.337 1440.62 251.507L1435.1 250.082C1431.48 249.192 1428.51 247.679 1426.2 245.543C1423.88 243.407 1422.73 240.647 1422.73 237.265C1422.73 234.654 1423.5 232.369 1425.04 230.411C1426.64 228.393 1428.75 226.85 1431.36 225.782C1433.97 224.714 1436.79 224.18 1439.82 224.18C1443.79 224.18 1447.32 225.041 1450.41 226.761C1453.55 228.482 1455.78 230.886 1457.08 233.971L1450.5 236.998C1448.48 232.963 1444.89 230.945 1439.73 230.945C1437.23 230.945 1435.04 231.538 1433.14 232.725C1431.3 233.853 1430.38 235.307 1430.38 237.087C1430.38 238.748 1431.03 240.113 1432.34 241.181C1433.64 242.19 1435.6 243.021 1438.21 243.674L1444.8 245.365C1449.25 246.492 1452.6 248.183 1454.86 250.438C1457.11 252.634 1458.24 255.334 1458.24 258.538C1458.24 261.327 1457.44 263.79 1455.84 265.926C1454.24 268.003 1452.07 269.605 1449.34 270.733C1446.61 271.86 1443.58 272.424 1440.26 272.424ZM1481.44 272.424C1476.58 272.424 1472.51 271.297 1469.25 269.042C1465.98 266.727 1463.67 263.79 1462.3 260.23L1469.07 257.203C1470.2 259.933 1471.86 262.04 1474.05 263.523C1476.31 265.007 1478.77 265.748 1481.44 265.748C1484.29 265.748 1486.72 265.185 1488.74 264.057C1490.76 262.87 1491.77 261.209 1491.77 259.073C1491.77 257.174 1490.97 255.66 1489.36 254.533C1487.76 253.346 1485.24 252.337 1481.8 251.507L1476.28 250.082C1472.66 249.192 1469.69 247.679 1467.38 245.543C1465.06 243.407 1463.91 240.647 1463.91 237.265C1463.91 234.654 1464.68 232.369 1466.22 230.411C1467.82 228.393 1469.93 226.85 1472.54 225.782C1475.15 224.714 1477.97 224.18 1481 224.18C1484.97 224.18 1488.5 225.041 1491.59 226.761C1494.73 228.482 1496.96 230.886 1498.27 233.971L1491.68 236.998C1489.66 232.963 1486.07 230.945 1480.91 230.945C1478.42 230.945 1476.22 231.538 1474.32 232.725C1472.48 233.853 1471.56 235.307 1471.56 237.087C1471.56 238.748 1472.21 240.113 1473.52 241.181C1474.83 242.19 1476.78 243.021 1479.39 243.674L1485.98 245.365C1490.43 246.492 1493.79 248.183 1496.04 250.438C1498.29 252.634 1499.42 255.334 1499.42 258.538C1499.42 261.327 1498.62 263.79 1497.02 265.926C1495.42 268.003 1493.25 269.605 1490.52 270.733C1487.79 271.86 1484.77 272.424 1481.44 272.424ZM1521.72 272.424C1518.4 272.424 1515.43 271.771 1512.82 270.466C1510.21 269.16 1508.19 267.38 1506.77 265.125C1505.35 262.811 1504.63 260.2 1504.63 257.292C1504.63 252.486 1506.44 248.747 1510.06 246.077C1513.68 243.347 1518.25 241.982 1523.77 241.982C1526.5 241.982 1529.02 242.279 1531.34 242.872C1533.71 243.466 1535.52 244.148 1536.77 244.92V242.16C1536.77 238.778 1535.58 236.078 1533.21 234.06C1530.83 231.983 1527.84 230.945 1524.22 230.945C1521.66 230.945 1519.32 231.509 1517.18 232.636C1515.05 233.704 1513.36 235.218 1512.11 237.176L1506.41 232.903C1508.19 230.174 1510.63 228.037 1513.71 226.494C1516.86 224.952 1520.33 224.18 1524.13 224.18C1530.3 224.18 1535.13 225.812 1538.64 229.076C1542.2 232.28 1543.98 236.671 1543.98 242.249V271H1536.77V264.502H1536.41C1535.1 266.698 1533.15 268.567 1530.54 270.11C1527.92 271.653 1524.99 272.424 1521.72 272.424ZM1522.44 265.748C1524.99 265.748 1527.36 265.096 1529.56 263.79C1531.75 262.485 1533.5 260.734 1534.81 258.538C1536.11 256.343 1536.77 253.94 1536.77 251.329C1535.34 250.379 1533.59 249.608 1531.51 249.014C1529.44 248.421 1527.24 248.124 1524.93 248.124C1520.77 248.124 1517.63 248.985 1515.49 250.705C1513.42 252.426 1512.38 254.652 1512.38 257.381C1512.38 259.874 1513.33 261.891 1515.23 263.434C1517.12 264.977 1519.53 265.748 1522.44 265.748ZM1570.08 272.424C1564.62 272.424 1560.44 270.822 1557.53 267.618C1554.68 264.413 1553.26 259.933 1553.26 254.177V225.604H1560.82V253.02C1560.82 257.352 1561.8 260.526 1563.76 262.544C1565.72 264.562 1568.36 265.57 1571.68 265.57C1574.23 265.57 1576.49 264.888 1578.45 263.523C1580.46 262.158 1582.01 260.378 1583.07 258.182C1584.2 255.987 1584.77 253.672 1584.77 251.24V225.604H1592.33V271H1585.12V264.413H1584.77C1583.52 266.668 1581.53 268.567 1578.8 270.11C1576.07 271.653 1573.16 272.424 1570.08 272.424ZM1622.12 291.651C1616.78 291.651 1612.36 290.404 1608.86 287.912C1605.42 285.42 1603.1 282.423 1601.91 278.922L1608.77 275.985C1609.78 278.596 1611.44 280.702 1613.75 282.304C1616.13 283.966 1618.92 284.797 1622.12 284.797C1626.81 284.797 1630.43 283.432 1632.98 280.702C1635.59 277.973 1636.9 274.115 1636.9 269.131V264.057H1636.54C1635.06 266.371 1632.95 268.27 1630.22 269.754C1627.55 271.178 1624.49 271.89 1621.05 271.89C1617.14 271.89 1613.55 270.881 1610.28 268.864C1607.08 266.846 1604.53 264.027 1602.63 260.408C1600.73 256.788 1599.78 252.664 1599.78 248.035C1599.78 243.466 1600.73 239.371 1602.63 235.752C1604.53 232.072 1607.08 229.224 1610.28 227.207C1613.55 225.189 1617.14 224.18 1621.05 224.18C1624.49 224.18 1627.55 224.922 1630.22 226.405C1632.95 227.83 1635.06 229.729 1636.54 232.102H1636.9V225.604H1644.11V269.22C1644.11 276.519 1642.09 282.067 1638.05 285.865C1634.02 289.722 1628.71 291.651 1622.12 291.651ZM1622.12 265.036C1624.85 265.036 1627.31 264.354 1629.51 262.989C1631.76 261.624 1633.54 259.666 1634.85 257.114C1636.21 254.563 1636.9 251.536 1636.9 248.035C1636.9 244.475 1636.21 241.419 1634.85 238.867C1633.54 236.315 1631.76 234.387 1629.51 233.081C1627.31 231.716 1624.85 231.034 1622.12 231.034C1619.39 231.034 1616.9 231.716 1614.64 233.081C1612.39 234.446 1610.58 236.404 1609.21 238.956C1607.91 241.508 1607.26 244.534 1607.26 248.035C1607.26 251.536 1607.91 254.592 1609.21 257.203C1610.58 259.755 1612.39 261.713 1614.64 263.078C1616.9 264.384 1619.39 265.036 1622.12 265.036ZM1668.48 272.424C1665.15 272.424 1662.19 271.771 1659.58 270.466C1656.96 269.16 1654.95 267.38 1653.52 265.125C1652.1 262.811 1651.39 260.2 1651.39 257.292C1651.39 252.486 1653.2 248.747 1656.82 246.077C1660.44 243.347 1665.01 241.982 1670.52 241.982C1673.25 241.982 1675.78 242.279 1678.09 242.872C1680.46 243.466 1682.27 244.148 1683.52 244.92V242.16C1683.52 238.778 1682.33 236.078 1679.96 234.06C1677.59 231.983 1674.59 230.945 1670.97 230.945C1668.42 230.945 1666.07 231.509 1663.94 232.636C1661.8 233.704 1660.11 235.218 1658.86 237.176L1653.17 232.903C1654.95 230.174 1657.38 228.037 1660.47 226.494C1663.61 224.952 1667.08 224.18 1670.88 224.18C1677.05 224.18 1681.89 225.812 1685.39 229.076C1688.95 232.28 1690.73 236.671 1690.73 242.249V271H1683.52V264.502H1683.16C1681.86 266.698 1679.9 268.567 1677.29 270.11C1674.68 271.653 1671.74 272.424 1668.48 272.424ZM1669.19 265.748C1671.74 265.748 1674.11 265.096 1676.31 263.79C1678.51 262.485 1680.26 260.734 1681.56 258.538C1682.87 256.343 1683.52 253.94 1683.52 251.329C1682.1 250.379 1680.35 249.608 1678.27 249.014C1676.19 248.421 1674 248.124 1671.68 248.124C1667.53 248.124 1664.38 248.985 1662.25 250.705C1660.17 252.426 1659.13 254.652 1659.13 257.381C1659.13 259.874 1660.08 261.891 1661.98 263.434C1663.88 264.977 1666.28 265.748 1669.19 265.748Z" fill="#656C73"/>
</svg>
