<svg xmlns="http://www.w3.org/2000/svg" viewBox="0 0 121.03 58.57">
	<g>
		<path class="cls-1"
			d="M48.47 40.52 14.51 20.91a9.63 9.63 0 0 0-4.83-1.3 9.67 9.67 0 0 0-8.38 4.84C-1.37 29.08.21 34.99 4.84 37.66L38.8 57.27a9.63 9.63 0 0 0 4.83 1.3c3.34 0 6.59-1.73 8.38-4.84 2.67-4.63 1.09-10.54-3.54-13.21ZM116.2 20.91 82.24 1.3A9.63 9.63 0 0 0 77.41 0c-3.34 0-6.59 1.73-8.38 4.84-2.67 4.62-1.09 10.54 3.54 13.21l33.96 19.61a9.63 9.63 0 0 0 4.83 1.3c3.34 0 6.59-1.73 8.38-4.84 2.67-4.63 1.08-10.54-3.54-13.21ZM105.18 39.99l-15.85-9.15-16.77 9.68c-4.63 2.67-6.21 8.58-3.54 13.21a9.656 9.656 0 0 0 13.21 3.54l27.3-15.76c-1.52-.23-3-.74-4.35-1.52ZM15.86 18.58l15.85 9.15 16.77-9.68c4.63-2.67 6.21-8.58 3.54-13.21C49.35.22 43.44-1.37 38.81 1.3l-27.3 15.76c1.52.23 3 .74 4.35 1.52Z" />
	</g>
</svg>
