<?xml version="1.0" encoding="UTF-8"?>
<svg xmlns="http://www.w3.org/2000/svg" viewBox="0 0 512 512" xml:space="preserve">
  <path class="st0" fill="#E2E3E4" d="M0 0h512v512H0z"/>
  <path class="st1" fill="#C5C6C8" d="M319.916687 163.166626C319.916687 127.8664551 291.3001709 99.25 256 99.25c-29.0783691 0-53.6047974 19.4250488-61.3530884 46.0013428l79.2683716 79.2683716c26.5762939-7.7482911 46.0014038-32.2746582 46.0014038-61.3530884zM395.1333618 395.666626 115.8827515 116.4160767l-24.5955811 24.5955811 126.9463501 126.9462891c-58.4865723 9.7307739-100.7979126 37.2872314-101.4153442 69.854248 24.4501953 37.2329102 63.430481 64.0648804 108.883728 72.4273682 11.8168945 1.6216431 24.2219238 2.5253296 37.020813 2.6138916 28.2525024-1.1231689 54.684021-9.3007812 77.6036987-22.8025513 10.0704651 10.0704346 20.1408997 20.1408691 30.2113647 30.2113037l24.5955811-24.5955811z"/>
</svg>
