<svg width="498" height="241" xmlns="http://www.w3.org/2000/svg" xmlns:xlink="http://www.w3.org/1999/xlink" xml:space="preserve" overflow="hidden"><defs><clipPath id="clip0"><rect x="1731" y="451" width="498" height="241"/></clipPath></defs><g clip-path="url(#clip0)" transform="translate(-1731 -451)"><path d="M1849.45 572 1930.15 525.279C1949.14 514.285 1955.64 489.944 1944.67 470.906 1933.71 451.866 1909.43 445.348 1890.44 456.343L1751 537.058 1849.45 572Z" fill="#EA4335" fill-rule="evenodd"/><path d="M1910.22 692C1923.96 692 1937.32 684.878 1944.67 672.136 1955.64 653.137 1949.14 628.848 1930.13 617.877L1790.6 537.331C1771.6 526.36 1747.31 532.865 1736.33 551.864 1725.36 570.863 1731.86 595.152 1750.87 606.123L1890.4 686.669C1896.66 690.271 1903.49 692 1910.22 692Z" fill="#4285F4" fill-rule="evenodd"/><path d="M2049.75 692C2056.48 692 2063.31 690.284 2069.56 686.645L2209 605.746 2111.8 570 2029.85 617.551C2010.86 628.571 2004.36 652.967 2015.33 672.049 2022.67 684.826 2036.03 692 2049.75 692Z" fill="#FBBC04" fill-rule="evenodd"/><path d="M2189.22 611C2202.96 611 2216.32 603.878 2223.67 591.136 2234.64 572.138 2228.14 547.848 2209.13 536.877L2069.6 456.331C2050.6 445.36 2026.31 451.864 2015.33 470.864 2004.36 489.863 2010.86 514.152 2029.87 525.123L2169.4 605.669C2175.63 609.271 2182.47 611 2189.22 611Z" fill="#0F9D58" fill-rule="evenodd"/></g></svg>