<?xml version="1.0" encoding="UTF-8"?>
<svg xmlns="http://www.w3.org/2000/svg" xmlns:xlink="http://www.w3.org/1999/xlink" version="1.1" x="0" y="0" viewBox="0 0 2475 2475" xml:space="preserve">
    <path d="M0 323.1C0 144.7 144.7 0 323.1 0h1828.7C2330.3 0 2475 144.7 2475 323.1v1828.7c0 178.5-144.7 323.1-323.1 323.1H323.1C144.7 2475 0 2330.3 0 2151.9V323.1z" style="fill-rule:evenodd;clip-rule:evenodd;fill:#fff"></path>
    <path d="m705.7 1239 329.3-190c77.5-44.7 104-143.7 59.3-221.1-44.8-77.4-143.8-103.9-221.3-59.2l-569 328.2L705.7 1239z" style="fill-rule:evenodd;clip-rule:evenodd;fill:#ea4335"></path>
    <path d="M953.8 1728c56 0 110.5-29.1 140.4-81.1 44.7-77.5 18.2-176.7-59.3-221.4L466 1096.8c-77.5-44.8-176.6-18.2-221.3 59.3-44.7 77.5-18.2 176.7 59.3 221.4l569 328.7c25.5 14.7 53.3 21.8 80.8 21.8z" style="fill-rule:evenodd;clip-rule:evenodd;fill:#4285f4"></path>
    <path d="M1520.2 1728c27.4 0 55.3-7 80.9-21.7L2170 1378l-396.6-145-334.4 192.9c-77.5 44.7-104 143.7-59.3 221.1 30 51.9 84.5 81 140.5 81z" style="fill-rule:evenodd;clip-rule:evenodd;fill:#fbbc04"></path>
    <path d="M2088.8 1400c56 0 110.5-29.1 140.4-81.1 44.7-77.5 18.2-176.7-59.3-221.4L1601 768.8c-77.5-44.8-176.6-18.2-221.3 59.3-44.7 77.5-18.2 176.7 59.3 221.5l568.9 328.7c25.5 14.6 53.4 21.7 80.9 21.7z" style="fill-rule:evenodd;clip-rule:evenodd;fill:#0f9d58"></path>
</svg>
